%TF.GenerationSoftware,KiCad,Pcbnew,8.0.3*%
%TF.CreationDate,2024-10-19T22:35:31-05:00*%
%TF.ProjectId,G1 RGB Mod Board,47312052-4742-4204-9d6f-6420426f6172,rev?*%
%TF.SameCoordinates,Original*%
%TF.FileFunction,Copper,L1,Top*%
%TF.FilePolarity,Positive*%
%FSLAX46Y46*%
G04 Gerber Fmt 4.6, Leading zero omitted, Abs format (unit mm)*
G04 Created by KiCad (PCBNEW 8.0.3) date 2024-10-19 22:35:31*
%MOMM*%
%LPD*%
G01*
G04 APERTURE LIST*
%TA.AperFunction,ComponentPad*%
%ADD10R,2.200000X2.200000*%
%TD*%
%TA.AperFunction,ComponentPad*%
%ADD11O,2.200000X2.200000*%
%TD*%
%TA.AperFunction,SMDPad,CuDef*%
%ADD12R,4.000000X4.000000*%
%TD*%
%TA.AperFunction,ComponentPad*%
%ADD13C,1.600000*%
%TD*%
%TA.AperFunction,ComponentPad*%
%ADD14O,1.600000X1.600000*%
%TD*%
%TA.AperFunction,ComponentPad*%
%ADD15C,2.000000*%
%TD*%
%TA.AperFunction,ComponentPad*%
%ADD16O,2.000000X2.000000*%
%TD*%
%TA.AperFunction,ComponentPad*%
%ADD17C,1.800000*%
%TD*%
%TA.AperFunction,Conductor*%
%ADD18C,1.500000*%
%TD*%
G04 APERTURE END LIST*
D10*
%TO.P,D1,1*%
%TO.N,def*%
X32840000Y-25500000D03*
D11*
%TO.P,D1,2*%
X43000000Y-25500000D03*
%TD*%
D10*
%TO.P,D2,1*%
%TO.N,def*%
X33000000Y-41500000D03*
D11*
%TO.P,D2,2*%
X33000000Y-31340000D03*
%TD*%
D12*
%TO.P,Neck GND,1*%
%TO.N,def*%
X101000000Y-45500000D03*
%TD*%
%TO.P,G1,1*%
%TO.N,def*%
X101000000Y-17500000D03*
%TD*%
%TO.P,Chassis GND,1*%
%TO.N,def*%
X17000000Y-45500000D03*
%TD*%
%TO.P,FBT 150-250Vpp,1*%
%TO.N,N/C*%
X17000000Y-17000000D03*
%TD*%
D13*
%TO.P,10kR,1*%
%TO.N,def*%
X56388000Y-17000000D03*
D14*
%TO.P,10kR,2*%
X66548000Y-17000000D03*
%TD*%
D13*
%TO.P,100R,1*%
%TO.N,N/C*%
X17380000Y-25000000D03*
D14*
%TO.P,100R,2*%
X25000000Y-25000000D03*
%TD*%
D15*
%TO.P,100uH,1*%
%TO.N,def*%
X71628000Y-17272000D03*
D16*
%TO.P,100uH,2*%
X84328000Y-17272000D03*
%TD*%
D13*
%TO.P,1nF,1*%
%TO.N,def*%
X40500000Y-17000000D03*
%TO.P,1nF,2*%
X48000000Y-17000000D03*
%TD*%
%TO.P,100nF,1*%
%TO.N,N/C*%
X25000000Y-17000000D03*
%TO.P,100nF,2*%
%TO.N,def*%
X32500000Y-17000000D03*
%TD*%
%TO.P,100nF,1*%
%TO.N,def*%
X92500000Y-29000000D03*
D14*
%TO.P,100nF,2*%
X92500000Y-39000000D03*
%TD*%
D13*
%TO.P,1uF,1*%
%TO.N,def*%
X83000000Y-26000000D03*
D14*
%TO.P,1uF,2*%
X83000000Y-41000000D03*
%TD*%
D13*
%TO.P,22uF,1*%
%TO.N,def*%
X46500000Y-39000000D03*
%TO.P,22uF,2*%
X46500000Y-34000000D03*
%TD*%
D17*
%TO.P,100kR,1*%
%TO.N,def*%
X63475000Y-36925000D03*
%TO.P,100kR,2*%
X66015000Y-36925000D03*
%TO.P,100kR,3*%
X68555000Y-36925000D03*
%TD*%
D18*
%TO.N,def*%
X92500000Y-21020000D02*
X95504000Y-18016000D01*
X95504000Y-18016000D02*
X95504000Y-17500000D01*
X92500000Y-29000000D02*
X92500000Y-21020000D01*
X91440000Y-17560000D02*
X91440000Y-17500000D01*
X83000000Y-26000000D02*
X91440000Y-17560000D01*
X84556000Y-17500000D02*
X101000000Y-17500000D01*
X84328000Y-17272000D02*
X84556000Y-17500000D01*
X71356000Y-17000000D02*
X71628000Y-17272000D01*
X66548000Y-17000000D02*
X71356000Y-17000000D01*
X100264000Y-16764000D02*
X101000000Y-17500000D01*
X66820000Y-17272000D02*
X66548000Y-17000000D01*
X66015000Y-26627000D02*
X56388000Y-17000000D01*
X66015000Y-36925000D02*
X66015000Y-26627000D01*
X92500000Y-45456000D02*
X92456000Y-45500000D01*
X92500000Y-39000000D02*
X92500000Y-45456000D01*
X92456000Y-45500000D02*
X83312000Y-45500000D01*
X101000000Y-45500000D02*
X92456000Y-45500000D01*
X83000000Y-45188000D02*
X83312000Y-45500000D01*
X83000000Y-41000000D02*
X83000000Y-45188000D01*
X83312000Y-45500000D02*
X69088000Y-45500000D01*
X100500000Y-17000000D02*
X101000000Y-17500000D01*
X68555000Y-36925000D02*
X68555000Y-44967000D01*
X69088000Y-45500000D02*
X46736000Y-45500000D01*
X68555000Y-44967000D02*
X69088000Y-45500000D01*
X60550000Y-34000000D02*
X63475000Y-36925000D01*
X46500000Y-34000000D02*
X60550000Y-34000000D01*
X48000000Y-20500000D02*
X43000000Y-25500000D01*
X48000000Y-17000000D02*
X48000000Y-20500000D01*
X40500000Y-17840000D02*
X32840000Y-25500000D01*
X40500000Y-17000000D02*
X40500000Y-17840000D01*
X46500000Y-29000000D02*
X43000000Y-25500000D01*
X46500000Y-34000000D02*
X46500000Y-29000000D01*
X46500000Y-39000000D02*
X46500000Y-45264000D01*
X46736000Y-45500000D02*
X33020000Y-45500000D01*
X46500000Y-45264000D02*
X46736000Y-45500000D01*
X33000000Y-41500000D02*
X33000000Y-45480000D01*
X33000000Y-45480000D02*
X33020000Y-45500000D01*
X33020000Y-45500000D02*
X17000000Y-45500000D01*
X32840000Y-31180000D02*
X33000000Y-31340000D01*
X32840000Y-25500000D02*
X32840000Y-31180000D01*
X32500000Y-25160000D02*
X32840000Y-25500000D01*
X32500000Y-17000000D02*
X32500000Y-25160000D01*
%TO.N,*%
X25000000Y-25000000D02*
X25000000Y-17000000D01*
X17000000Y-24620000D02*
X17380000Y-25000000D01*
X17000000Y-17000000D02*
X17000000Y-24620000D01*
%TD*%
M02*
