%TF.GenerationSoftware,KiCad,Pcbnew,8.0.3*%
%TF.CreationDate,2024-10-19T22:35:31-05:00*%
%TF.ProjectId,G1 RGB Mod Board,47312052-4742-4204-9d6f-6420426f6172,rev?*%
%TF.SameCoordinates,Original*%
%TF.FileFunction,Legend,Top*%
%TF.FilePolarity,Positive*%
%FSLAX46Y46*%
G04 Gerber Fmt 4.6, Leading zero omitted, Abs format (unit mm)*
G04 Created by KiCad (PCBNEW 8.0.3) date 2024-10-19 22:35:31*
%MOMM*%
%LPD*%
G01*
G04 APERTURE LIST*
%ADD10C,0.150000*%
%ADD11C,0.120000*%
G04 APERTURE END LIST*
D10*
X52479533Y-42925904D02*
X52479533Y-41402095D01*
X53241438Y-42163999D02*
X51717628Y-42163999D01*
X37181905Y-23484819D02*
X37181905Y-22484819D01*
X37181905Y-22484819D02*
X37420000Y-22484819D01*
X37420000Y-22484819D02*
X37562857Y-22532438D01*
X37562857Y-22532438D02*
X37658095Y-22627676D01*
X37658095Y-22627676D02*
X37705714Y-22722914D01*
X37705714Y-22722914D02*
X37753333Y-22913390D01*
X37753333Y-22913390D02*
X37753333Y-23056247D01*
X37753333Y-23056247D02*
X37705714Y-23246723D01*
X37705714Y-23246723D02*
X37658095Y-23341961D01*
X37658095Y-23341961D02*
X37562857Y-23437200D01*
X37562857Y-23437200D02*
X37420000Y-23484819D01*
X37420000Y-23484819D02*
X37181905Y-23484819D01*
X38705714Y-23484819D02*
X38134286Y-23484819D01*
X38420000Y-23484819D02*
X38420000Y-22484819D01*
X38420000Y-22484819D02*
X38324762Y-22627676D01*
X38324762Y-22627676D02*
X38229524Y-22722914D01*
X38229524Y-22722914D02*
X38134286Y-22770533D01*
X32578095Y-23854819D02*
X32578095Y-22854819D01*
X33149523Y-23854819D02*
X32720952Y-23283390D01*
X33149523Y-22854819D02*
X32578095Y-23426247D01*
X30984819Y-37158094D02*
X29984819Y-37158094D01*
X29984819Y-37158094D02*
X29984819Y-36919999D01*
X29984819Y-36919999D02*
X30032438Y-36777142D01*
X30032438Y-36777142D02*
X30127676Y-36681904D01*
X30127676Y-36681904D02*
X30222914Y-36634285D01*
X30222914Y-36634285D02*
X30413390Y-36586666D01*
X30413390Y-36586666D02*
X30556247Y-36586666D01*
X30556247Y-36586666D02*
X30746723Y-36634285D01*
X30746723Y-36634285D02*
X30841961Y-36681904D01*
X30841961Y-36681904D02*
X30937200Y-36777142D01*
X30937200Y-36777142D02*
X30984819Y-36919999D01*
X30984819Y-36919999D02*
X30984819Y-37158094D01*
X30080057Y-36205713D02*
X30032438Y-36158094D01*
X30032438Y-36158094D02*
X29984819Y-36062856D01*
X29984819Y-36062856D02*
X29984819Y-35824761D01*
X29984819Y-35824761D02*
X30032438Y-35729523D01*
X30032438Y-35729523D02*
X30080057Y-35681904D01*
X30080057Y-35681904D02*
X30175295Y-35634285D01*
X30175295Y-35634285D02*
X30270533Y-35634285D01*
X30270533Y-35634285D02*
X30413390Y-35681904D01*
X30413390Y-35681904D02*
X30984819Y-36253332D01*
X30984819Y-36253332D02*
X30984819Y-35634285D01*
X97639619Y-42110819D02*
X97639619Y-41110819D01*
X97639619Y-41110819D02*
X98211047Y-42110819D01*
X98211047Y-42110819D02*
X98211047Y-41110819D01*
X99068190Y-42063200D02*
X98972952Y-42110819D01*
X98972952Y-42110819D02*
X98782476Y-42110819D01*
X98782476Y-42110819D02*
X98687238Y-42063200D01*
X98687238Y-42063200D02*
X98639619Y-41967961D01*
X98639619Y-41967961D02*
X98639619Y-41587009D01*
X98639619Y-41587009D02*
X98687238Y-41491771D01*
X98687238Y-41491771D02*
X98782476Y-41444152D01*
X98782476Y-41444152D02*
X98972952Y-41444152D01*
X98972952Y-41444152D02*
X99068190Y-41491771D01*
X99068190Y-41491771D02*
X99115809Y-41587009D01*
X99115809Y-41587009D02*
X99115809Y-41682247D01*
X99115809Y-41682247D02*
X98639619Y-41777485D01*
X99972952Y-42063200D02*
X99877714Y-42110819D01*
X99877714Y-42110819D02*
X99687238Y-42110819D01*
X99687238Y-42110819D02*
X99592000Y-42063200D01*
X99592000Y-42063200D02*
X99544381Y-42015580D01*
X99544381Y-42015580D02*
X99496762Y-41920342D01*
X99496762Y-41920342D02*
X99496762Y-41634628D01*
X99496762Y-41634628D02*
X99544381Y-41539390D01*
X99544381Y-41539390D02*
X99592000Y-41491771D01*
X99592000Y-41491771D02*
X99687238Y-41444152D01*
X99687238Y-41444152D02*
X99877714Y-41444152D01*
X99877714Y-41444152D02*
X99972952Y-41491771D01*
X100401524Y-42110819D02*
X100401524Y-41110819D01*
X100496762Y-41729866D02*
X100782476Y-42110819D01*
X100782476Y-41444152D02*
X100401524Y-41825104D01*
X102496762Y-41158438D02*
X102401524Y-41110819D01*
X102401524Y-41110819D02*
X102258667Y-41110819D01*
X102258667Y-41110819D02*
X102115810Y-41158438D01*
X102115810Y-41158438D02*
X102020572Y-41253676D01*
X102020572Y-41253676D02*
X101972953Y-41348914D01*
X101972953Y-41348914D02*
X101925334Y-41539390D01*
X101925334Y-41539390D02*
X101925334Y-41682247D01*
X101925334Y-41682247D02*
X101972953Y-41872723D01*
X101972953Y-41872723D02*
X102020572Y-41967961D01*
X102020572Y-41967961D02*
X102115810Y-42063200D01*
X102115810Y-42063200D02*
X102258667Y-42110819D01*
X102258667Y-42110819D02*
X102353905Y-42110819D01*
X102353905Y-42110819D02*
X102496762Y-42063200D01*
X102496762Y-42063200D02*
X102544381Y-42015580D01*
X102544381Y-42015580D02*
X102544381Y-41682247D01*
X102544381Y-41682247D02*
X102353905Y-41682247D01*
X102972953Y-42110819D02*
X102972953Y-41110819D01*
X102972953Y-41110819D02*
X103544381Y-42110819D01*
X103544381Y-42110819D02*
X103544381Y-41110819D01*
X104020572Y-42110819D02*
X104020572Y-41110819D01*
X104020572Y-41110819D02*
X104258667Y-41110819D01*
X104258667Y-41110819D02*
X104401524Y-41158438D01*
X104401524Y-41158438D02*
X104496762Y-41253676D01*
X104496762Y-41253676D02*
X104544381Y-41348914D01*
X104544381Y-41348914D02*
X104592000Y-41539390D01*
X104592000Y-41539390D02*
X104592000Y-41682247D01*
X104592000Y-41682247D02*
X104544381Y-41872723D01*
X104544381Y-41872723D02*
X104496762Y-41967961D01*
X104496762Y-41967961D02*
X104401524Y-42063200D01*
X104401524Y-42063200D02*
X104258667Y-42110819D01*
X104258667Y-42110819D02*
X104020572Y-42110819D01*
X100877714Y-13218438D02*
X100782476Y-13170819D01*
X100782476Y-13170819D02*
X100639619Y-13170819D01*
X100639619Y-13170819D02*
X100496762Y-13218438D01*
X100496762Y-13218438D02*
X100401524Y-13313676D01*
X100401524Y-13313676D02*
X100353905Y-13408914D01*
X100353905Y-13408914D02*
X100306286Y-13599390D01*
X100306286Y-13599390D02*
X100306286Y-13742247D01*
X100306286Y-13742247D02*
X100353905Y-13932723D01*
X100353905Y-13932723D02*
X100401524Y-14027961D01*
X100401524Y-14027961D02*
X100496762Y-14123200D01*
X100496762Y-14123200D02*
X100639619Y-14170819D01*
X100639619Y-14170819D02*
X100734857Y-14170819D01*
X100734857Y-14170819D02*
X100877714Y-14123200D01*
X100877714Y-14123200D02*
X100925333Y-14075580D01*
X100925333Y-14075580D02*
X100925333Y-13742247D01*
X100925333Y-13742247D02*
X100734857Y-13742247D01*
X101877714Y-14170819D02*
X101306286Y-14170819D01*
X101592000Y-14170819D02*
X101592000Y-13170819D01*
X101592000Y-13170819D02*
X101496762Y-13313676D01*
X101496762Y-13313676D02*
X101401524Y-13408914D01*
X101401524Y-13408914D02*
X101306286Y-13456533D01*
X13319618Y-41507580D02*
X13271999Y-41555200D01*
X13271999Y-41555200D02*
X13129142Y-41602819D01*
X13129142Y-41602819D02*
X13033904Y-41602819D01*
X13033904Y-41602819D02*
X12891047Y-41555200D01*
X12891047Y-41555200D02*
X12795809Y-41459961D01*
X12795809Y-41459961D02*
X12748190Y-41364723D01*
X12748190Y-41364723D02*
X12700571Y-41174247D01*
X12700571Y-41174247D02*
X12700571Y-41031390D01*
X12700571Y-41031390D02*
X12748190Y-40840914D01*
X12748190Y-40840914D02*
X12795809Y-40745676D01*
X12795809Y-40745676D02*
X12891047Y-40650438D01*
X12891047Y-40650438D02*
X13033904Y-40602819D01*
X13033904Y-40602819D02*
X13129142Y-40602819D01*
X13129142Y-40602819D02*
X13271999Y-40650438D01*
X13271999Y-40650438D02*
X13319618Y-40698057D01*
X13748190Y-41602819D02*
X13748190Y-40602819D01*
X14176761Y-41602819D02*
X14176761Y-41079009D01*
X14176761Y-41079009D02*
X14129142Y-40983771D01*
X14129142Y-40983771D02*
X14033904Y-40936152D01*
X14033904Y-40936152D02*
X13891047Y-40936152D01*
X13891047Y-40936152D02*
X13795809Y-40983771D01*
X13795809Y-40983771D02*
X13748190Y-41031390D01*
X15081523Y-41602819D02*
X15081523Y-41079009D01*
X15081523Y-41079009D02*
X15033904Y-40983771D01*
X15033904Y-40983771D02*
X14938666Y-40936152D01*
X14938666Y-40936152D02*
X14748190Y-40936152D01*
X14748190Y-40936152D02*
X14652952Y-40983771D01*
X15081523Y-41555200D02*
X14986285Y-41602819D01*
X14986285Y-41602819D02*
X14748190Y-41602819D01*
X14748190Y-41602819D02*
X14652952Y-41555200D01*
X14652952Y-41555200D02*
X14605333Y-41459961D01*
X14605333Y-41459961D02*
X14605333Y-41364723D01*
X14605333Y-41364723D02*
X14652952Y-41269485D01*
X14652952Y-41269485D02*
X14748190Y-41221866D01*
X14748190Y-41221866D02*
X14986285Y-41221866D01*
X14986285Y-41221866D02*
X15081523Y-41174247D01*
X15510095Y-41555200D02*
X15605333Y-41602819D01*
X15605333Y-41602819D02*
X15795809Y-41602819D01*
X15795809Y-41602819D02*
X15891047Y-41555200D01*
X15891047Y-41555200D02*
X15938666Y-41459961D01*
X15938666Y-41459961D02*
X15938666Y-41412342D01*
X15938666Y-41412342D02*
X15891047Y-41317104D01*
X15891047Y-41317104D02*
X15795809Y-41269485D01*
X15795809Y-41269485D02*
X15652952Y-41269485D01*
X15652952Y-41269485D02*
X15557714Y-41221866D01*
X15557714Y-41221866D02*
X15510095Y-41126628D01*
X15510095Y-41126628D02*
X15510095Y-41079009D01*
X15510095Y-41079009D02*
X15557714Y-40983771D01*
X15557714Y-40983771D02*
X15652952Y-40936152D01*
X15652952Y-40936152D02*
X15795809Y-40936152D01*
X15795809Y-40936152D02*
X15891047Y-40983771D01*
X16319619Y-41555200D02*
X16414857Y-41602819D01*
X16414857Y-41602819D02*
X16605333Y-41602819D01*
X16605333Y-41602819D02*
X16700571Y-41555200D01*
X16700571Y-41555200D02*
X16748190Y-41459961D01*
X16748190Y-41459961D02*
X16748190Y-41412342D01*
X16748190Y-41412342D02*
X16700571Y-41317104D01*
X16700571Y-41317104D02*
X16605333Y-41269485D01*
X16605333Y-41269485D02*
X16462476Y-41269485D01*
X16462476Y-41269485D02*
X16367238Y-41221866D01*
X16367238Y-41221866D02*
X16319619Y-41126628D01*
X16319619Y-41126628D02*
X16319619Y-41079009D01*
X16319619Y-41079009D02*
X16367238Y-40983771D01*
X16367238Y-40983771D02*
X16462476Y-40936152D01*
X16462476Y-40936152D02*
X16605333Y-40936152D01*
X16605333Y-40936152D02*
X16700571Y-40983771D01*
X17176762Y-41602819D02*
X17176762Y-40936152D01*
X17176762Y-40602819D02*
X17129143Y-40650438D01*
X17129143Y-40650438D02*
X17176762Y-40698057D01*
X17176762Y-40698057D02*
X17224381Y-40650438D01*
X17224381Y-40650438D02*
X17176762Y-40602819D01*
X17176762Y-40602819D02*
X17176762Y-40698057D01*
X17605333Y-41555200D02*
X17700571Y-41602819D01*
X17700571Y-41602819D02*
X17891047Y-41602819D01*
X17891047Y-41602819D02*
X17986285Y-41555200D01*
X17986285Y-41555200D02*
X18033904Y-41459961D01*
X18033904Y-41459961D02*
X18033904Y-41412342D01*
X18033904Y-41412342D02*
X17986285Y-41317104D01*
X17986285Y-41317104D02*
X17891047Y-41269485D01*
X17891047Y-41269485D02*
X17748190Y-41269485D01*
X17748190Y-41269485D02*
X17652952Y-41221866D01*
X17652952Y-41221866D02*
X17605333Y-41126628D01*
X17605333Y-41126628D02*
X17605333Y-41079009D01*
X17605333Y-41079009D02*
X17652952Y-40983771D01*
X17652952Y-40983771D02*
X17748190Y-40936152D01*
X17748190Y-40936152D02*
X17891047Y-40936152D01*
X17891047Y-40936152D02*
X17986285Y-40983771D01*
X19748190Y-40650438D02*
X19652952Y-40602819D01*
X19652952Y-40602819D02*
X19510095Y-40602819D01*
X19510095Y-40602819D02*
X19367238Y-40650438D01*
X19367238Y-40650438D02*
X19272000Y-40745676D01*
X19272000Y-40745676D02*
X19224381Y-40840914D01*
X19224381Y-40840914D02*
X19176762Y-41031390D01*
X19176762Y-41031390D02*
X19176762Y-41174247D01*
X19176762Y-41174247D02*
X19224381Y-41364723D01*
X19224381Y-41364723D02*
X19272000Y-41459961D01*
X19272000Y-41459961D02*
X19367238Y-41555200D01*
X19367238Y-41555200D02*
X19510095Y-41602819D01*
X19510095Y-41602819D02*
X19605333Y-41602819D01*
X19605333Y-41602819D02*
X19748190Y-41555200D01*
X19748190Y-41555200D02*
X19795809Y-41507580D01*
X19795809Y-41507580D02*
X19795809Y-41174247D01*
X19795809Y-41174247D02*
X19605333Y-41174247D01*
X20224381Y-41602819D02*
X20224381Y-40602819D01*
X20224381Y-40602819D02*
X20795809Y-41602819D01*
X20795809Y-41602819D02*
X20795809Y-40602819D01*
X21272000Y-41602819D02*
X21272000Y-40602819D01*
X21272000Y-40602819D02*
X21510095Y-40602819D01*
X21510095Y-40602819D02*
X21652952Y-40650438D01*
X21652952Y-40650438D02*
X21748190Y-40745676D01*
X21748190Y-40745676D02*
X21795809Y-40840914D01*
X21795809Y-40840914D02*
X21843428Y-41031390D01*
X21843428Y-41031390D02*
X21843428Y-41174247D01*
X21843428Y-41174247D02*
X21795809Y-41364723D01*
X21795809Y-41364723D02*
X21748190Y-41459961D01*
X21748190Y-41459961D02*
X21652952Y-41555200D01*
X21652952Y-41555200D02*
X21510095Y-41602819D01*
X21510095Y-41602819D02*
X21272000Y-41602819D01*
X12867428Y-13139009D02*
X12534095Y-13139009D01*
X12534095Y-13662819D02*
X12534095Y-12662819D01*
X12534095Y-12662819D02*
X13010285Y-12662819D01*
X13724571Y-13139009D02*
X13867428Y-13186628D01*
X13867428Y-13186628D02*
X13915047Y-13234247D01*
X13915047Y-13234247D02*
X13962666Y-13329485D01*
X13962666Y-13329485D02*
X13962666Y-13472342D01*
X13962666Y-13472342D02*
X13915047Y-13567580D01*
X13915047Y-13567580D02*
X13867428Y-13615200D01*
X13867428Y-13615200D02*
X13772190Y-13662819D01*
X13772190Y-13662819D02*
X13391238Y-13662819D01*
X13391238Y-13662819D02*
X13391238Y-12662819D01*
X13391238Y-12662819D02*
X13724571Y-12662819D01*
X13724571Y-12662819D02*
X13819809Y-12710438D01*
X13819809Y-12710438D02*
X13867428Y-12758057D01*
X13867428Y-12758057D02*
X13915047Y-12853295D01*
X13915047Y-12853295D02*
X13915047Y-12948533D01*
X13915047Y-12948533D02*
X13867428Y-13043771D01*
X13867428Y-13043771D02*
X13819809Y-13091390D01*
X13819809Y-13091390D02*
X13724571Y-13139009D01*
X13724571Y-13139009D02*
X13391238Y-13139009D01*
X14248381Y-12662819D02*
X14819809Y-12662819D01*
X14534095Y-13662819D02*
X14534095Y-12662819D01*
X16438857Y-13662819D02*
X15867429Y-13662819D01*
X16153143Y-13662819D02*
X16153143Y-12662819D01*
X16153143Y-12662819D02*
X16057905Y-12805676D01*
X16057905Y-12805676D02*
X15962667Y-12900914D01*
X15962667Y-12900914D02*
X15867429Y-12948533D01*
X17343619Y-12662819D02*
X16867429Y-12662819D01*
X16867429Y-12662819D02*
X16819810Y-13139009D01*
X16819810Y-13139009D02*
X16867429Y-13091390D01*
X16867429Y-13091390D02*
X16962667Y-13043771D01*
X16962667Y-13043771D02*
X17200762Y-13043771D01*
X17200762Y-13043771D02*
X17296000Y-13091390D01*
X17296000Y-13091390D02*
X17343619Y-13139009D01*
X17343619Y-13139009D02*
X17391238Y-13234247D01*
X17391238Y-13234247D02*
X17391238Y-13472342D01*
X17391238Y-13472342D02*
X17343619Y-13567580D01*
X17343619Y-13567580D02*
X17296000Y-13615200D01*
X17296000Y-13615200D02*
X17200762Y-13662819D01*
X17200762Y-13662819D02*
X16962667Y-13662819D01*
X16962667Y-13662819D02*
X16867429Y-13615200D01*
X16867429Y-13615200D02*
X16819810Y-13567580D01*
X18010286Y-12662819D02*
X18105524Y-12662819D01*
X18105524Y-12662819D02*
X18200762Y-12710438D01*
X18200762Y-12710438D02*
X18248381Y-12758057D01*
X18248381Y-12758057D02*
X18296000Y-12853295D01*
X18296000Y-12853295D02*
X18343619Y-13043771D01*
X18343619Y-13043771D02*
X18343619Y-13281866D01*
X18343619Y-13281866D02*
X18296000Y-13472342D01*
X18296000Y-13472342D02*
X18248381Y-13567580D01*
X18248381Y-13567580D02*
X18200762Y-13615200D01*
X18200762Y-13615200D02*
X18105524Y-13662819D01*
X18105524Y-13662819D02*
X18010286Y-13662819D01*
X18010286Y-13662819D02*
X17915048Y-13615200D01*
X17915048Y-13615200D02*
X17867429Y-13567580D01*
X17867429Y-13567580D02*
X17819810Y-13472342D01*
X17819810Y-13472342D02*
X17772191Y-13281866D01*
X17772191Y-13281866D02*
X17772191Y-13043771D01*
X17772191Y-13043771D02*
X17819810Y-12853295D01*
X17819810Y-12853295D02*
X17867429Y-12758057D01*
X17867429Y-12758057D02*
X17915048Y-12710438D01*
X17915048Y-12710438D02*
X18010286Y-12662819D01*
X18772191Y-13281866D02*
X19534096Y-13281866D01*
X19962667Y-12758057D02*
X20010286Y-12710438D01*
X20010286Y-12710438D02*
X20105524Y-12662819D01*
X20105524Y-12662819D02*
X20343619Y-12662819D01*
X20343619Y-12662819D02*
X20438857Y-12710438D01*
X20438857Y-12710438D02*
X20486476Y-12758057D01*
X20486476Y-12758057D02*
X20534095Y-12853295D01*
X20534095Y-12853295D02*
X20534095Y-12948533D01*
X20534095Y-12948533D02*
X20486476Y-13091390D01*
X20486476Y-13091390D02*
X19915048Y-13662819D01*
X19915048Y-13662819D02*
X20534095Y-13662819D01*
X21438857Y-12662819D02*
X20962667Y-12662819D01*
X20962667Y-12662819D02*
X20915048Y-13139009D01*
X20915048Y-13139009D02*
X20962667Y-13091390D01*
X20962667Y-13091390D02*
X21057905Y-13043771D01*
X21057905Y-13043771D02*
X21296000Y-13043771D01*
X21296000Y-13043771D02*
X21391238Y-13091390D01*
X21391238Y-13091390D02*
X21438857Y-13139009D01*
X21438857Y-13139009D02*
X21486476Y-13234247D01*
X21486476Y-13234247D02*
X21486476Y-13472342D01*
X21486476Y-13472342D02*
X21438857Y-13567580D01*
X21438857Y-13567580D02*
X21391238Y-13615200D01*
X21391238Y-13615200D02*
X21296000Y-13662819D01*
X21296000Y-13662819D02*
X21057905Y-13662819D01*
X21057905Y-13662819D02*
X20962667Y-13615200D01*
X20962667Y-13615200D02*
X20915048Y-13567580D01*
X22105524Y-12662819D02*
X22200762Y-12662819D01*
X22200762Y-12662819D02*
X22296000Y-12710438D01*
X22296000Y-12710438D02*
X22343619Y-12758057D01*
X22343619Y-12758057D02*
X22391238Y-12853295D01*
X22391238Y-12853295D02*
X22438857Y-13043771D01*
X22438857Y-13043771D02*
X22438857Y-13281866D01*
X22438857Y-13281866D02*
X22391238Y-13472342D01*
X22391238Y-13472342D02*
X22343619Y-13567580D01*
X22343619Y-13567580D02*
X22296000Y-13615200D01*
X22296000Y-13615200D02*
X22200762Y-13662819D01*
X22200762Y-13662819D02*
X22105524Y-13662819D01*
X22105524Y-13662819D02*
X22010286Y-13615200D01*
X22010286Y-13615200D02*
X21962667Y-13567580D01*
X21962667Y-13567580D02*
X21915048Y-13472342D01*
X21915048Y-13472342D02*
X21867429Y-13281866D01*
X21867429Y-13281866D02*
X21867429Y-13043771D01*
X21867429Y-13043771D02*
X21915048Y-12853295D01*
X21915048Y-12853295D02*
X21962667Y-12758057D01*
X21962667Y-12758057D02*
X22010286Y-12710438D01*
X22010286Y-12710438D02*
X22105524Y-12662819D01*
X22724572Y-12662819D02*
X23057905Y-13662819D01*
X23057905Y-13662819D02*
X23391238Y-12662819D01*
X23724572Y-12996152D02*
X23724572Y-13996152D01*
X23724572Y-13043771D02*
X23819810Y-12996152D01*
X23819810Y-12996152D02*
X24010286Y-12996152D01*
X24010286Y-12996152D02*
X24105524Y-13043771D01*
X24105524Y-13043771D02*
X24153143Y-13091390D01*
X24153143Y-13091390D02*
X24200762Y-13186628D01*
X24200762Y-13186628D02*
X24200762Y-13472342D01*
X24200762Y-13472342D02*
X24153143Y-13567580D01*
X24153143Y-13567580D02*
X24105524Y-13615200D01*
X24105524Y-13615200D02*
X24010286Y-13662819D01*
X24010286Y-13662819D02*
X23819810Y-13662819D01*
X23819810Y-13662819D02*
X23724572Y-13615200D01*
X24629334Y-12996152D02*
X24629334Y-13996152D01*
X24629334Y-13043771D02*
X24724572Y-12996152D01*
X24724572Y-12996152D02*
X24915048Y-12996152D01*
X24915048Y-12996152D02*
X25010286Y-13043771D01*
X25010286Y-13043771D02*
X25057905Y-13091390D01*
X25057905Y-13091390D02*
X25105524Y-13186628D01*
X25105524Y-13186628D02*
X25105524Y-13472342D01*
X25105524Y-13472342D02*
X25057905Y-13567580D01*
X25057905Y-13567580D02*
X25010286Y-13615200D01*
X25010286Y-13615200D02*
X24915048Y-13662819D01*
X24915048Y-13662819D02*
X24724572Y-13662819D01*
X24724572Y-13662819D02*
X24629334Y-13615200D01*
X60372761Y-15084819D02*
X59801333Y-15084819D01*
X60087047Y-15084819D02*
X60087047Y-14084819D01*
X60087047Y-14084819D02*
X59991809Y-14227676D01*
X59991809Y-14227676D02*
X59896571Y-14322914D01*
X59896571Y-14322914D02*
X59801333Y-14370533D01*
X60991809Y-14084819D02*
X61087047Y-14084819D01*
X61087047Y-14084819D02*
X61182285Y-14132438D01*
X61182285Y-14132438D02*
X61229904Y-14180057D01*
X61229904Y-14180057D02*
X61277523Y-14275295D01*
X61277523Y-14275295D02*
X61325142Y-14465771D01*
X61325142Y-14465771D02*
X61325142Y-14703866D01*
X61325142Y-14703866D02*
X61277523Y-14894342D01*
X61277523Y-14894342D02*
X61229904Y-14989580D01*
X61229904Y-14989580D02*
X61182285Y-15037200D01*
X61182285Y-15037200D02*
X61087047Y-15084819D01*
X61087047Y-15084819D02*
X60991809Y-15084819D01*
X60991809Y-15084819D02*
X60896571Y-15037200D01*
X60896571Y-15037200D02*
X60848952Y-14989580D01*
X60848952Y-14989580D02*
X60801333Y-14894342D01*
X60801333Y-14894342D02*
X60753714Y-14703866D01*
X60753714Y-14703866D02*
X60753714Y-14465771D01*
X60753714Y-14465771D02*
X60801333Y-14275295D01*
X60801333Y-14275295D02*
X60848952Y-14180057D01*
X60848952Y-14180057D02*
X60896571Y-14132438D01*
X60896571Y-14132438D02*
X60991809Y-14084819D01*
X61753714Y-15084819D02*
X61753714Y-14084819D01*
X61848952Y-14703866D02*
X62134666Y-15084819D01*
X62134666Y-14418152D02*
X61753714Y-14799104D01*
X63134666Y-15084819D02*
X62801333Y-14608628D01*
X62563238Y-15084819D02*
X62563238Y-14084819D01*
X62563238Y-14084819D02*
X62944190Y-14084819D01*
X62944190Y-14084819D02*
X63039428Y-14132438D01*
X63039428Y-14132438D02*
X63087047Y-14180057D01*
X63087047Y-14180057D02*
X63134666Y-14275295D01*
X63134666Y-14275295D02*
X63134666Y-14418152D01*
X63134666Y-14418152D02*
X63087047Y-14513390D01*
X63087047Y-14513390D02*
X63039428Y-14561009D01*
X63039428Y-14561009D02*
X62944190Y-14608628D01*
X62944190Y-14608628D02*
X62563238Y-14608628D01*
X20023333Y-23084819D02*
X19451905Y-23084819D01*
X19737619Y-23084819D02*
X19737619Y-22084819D01*
X19737619Y-22084819D02*
X19642381Y-22227676D01*
X19642381Y-22227676D02*
X19547143Y-22322914D01*
X19547143Y-22322914D02*
X19451905Y-22370533D01*
X20642381Y-22084819D02*
X20737619Y-22084819D01*
X20737619Y-22084819D02*
X20832857Y-22132438D01*
X20832857Y-22132438D02*
X20880476Y-22180057D01*
X20880476Y-22180057D02*
X20928095Y-22275295D01*
X20928095Y-22275295D02*
X20975714Y-22465771D01*
X20975714Y-22465771D02*
X20975714Y-22703866D01*
X20975714Y-22703866D02*
X20928095Y-22894342D01*
X20928095Y-22894342D02*
X20880476Y-22989580D01*
X20880476Y-22989580D02*
X20832857Y-23037200D01*
X20832857Y-23037200D02*
X20737619Y-23084819D01*
X20737619Y-23084819D02*
X20642381Y-23084819D01*
X20642381Y-23084819D02*
X20547143Y-23037200D01*
X20547143Y-23037200D02*
X20499524Y-22989580D01*
X20499524Y-22989580D02*
X20451905Y-22894342D01*
X20451905Y-22894342D02*
X20404286Y-22703866D01*
X20404286Y-22703866D02*
X20404286Y-22465771D01*
X20404286Y-22465771D02*
X20451905Y-22275295D01*
X20451905Y-22275295D02*
X20499524Y-22180057D01*
X20499524Y-22180057D02*
X20547143Y-22132438D01*
X20547143Y-22132438D02*
X20642381Y-22084819D01*
X21594762Y-22084819D02*
X21690000Y-22084819D01*
X21690000Y-22084819D02*
X21785238Y-22132438D01*
X21785238Y-22132438D02*
X21832857Y-22180057D01*
X21832857Y-22180057D02*
X21880476Y-22275295D01*
X21880476Y-22275295D02*
X21928095Y-22465771D01*
X21928095Y-22465771D02*
X21928095Y-22703866D01*
X21928095Y-22703866D02*
X21880476Y-22894342D01*
X21880476Y-22894342D02*
X21832857Y-22989580D01*
X21832857Y-22989580D02*
X21785238Y-23037200D01*
X21785238Y-23037200D02*
X21690000Y-23084819D01*
X21690000Y-23084819D02*
X21594762Y-23084819D01*
X21594762Y-23084819D02*
X21499524Y-23037200D01*
X21499524Y-23037200D02*
X21451905Y-22989580D01*
X21451905Y-22989580D02*
X21404286Y-22894342D01*
X21404286Y-22894342D02*
X21356667Y-22703866D01*
X21356667Y-22703866D02*
X21356667Y-22465771D01*
X21356667Y-22465771D02*
X21404286Y-22275295D01*
X21404286Y-22275295D02*
X21451905Y-22180057D01*
X21451905Y-22180057D02*
X21499524Y-22132438D01*
X21499524Y-22132438D02*
X21594762Y-22084819D01*
X22928095Y-23084819D02*
X22594762Y-22608628D01*
X22356667Y-23084819D02*
X22356667Y-22084819D01*
X22356667Y-22084819D02*
X22737619Y-22084819D01*
X22737619Y-22084819D02*
X22832857Y-22132438D01*
X22832857Y-22132438D02*
X22880476Y-22180057D01*
X22880476Y-22180057D02*
X22928095Y-22275295D01*
X22928095Y-22275295D02*
X22928095Y-22418152D01*
X22928095Y-22418152D02*
X22880476Y-22513390D01*
X22880476Y-22513390D02*
X22832857Y-22561009D01*
X22832857Y-22561009D02*
X22737619Y-22608628D01*
X22737619Y-22608628D02*
X22356667Y-22608628D01*
X76335142Y-14606819D02*
X75763714Y-14606819D01*
X76049428Y-14606819D02*
X76049428Y-13606819D01*
X76049428Y-13606819D02*
X75954190Y-13749676D01*
X75954190Y-13749676D02*
X75858952Y-13844914D01*
X75858952Y-13844914D02*
X75763714Y-13892533D01*
X76954190Y-13606819D02*
X77049428Y-13606819D01*
X77049428Y-13606819D02*
X77144666Y-13654438D01*
X77144666Y-13654438D02*
X77192285Y-13702057D01*
X77192285Y-13702057D02*
X77239904Y-13797295D01*
X77239904Y-13797295D02*
X77287523Y-13987771D01*
X77287523Y-13987771D02*
X77287523Y-14225866D01*
X77287523Y-14225866D02*
X77239904Y-14416342D01*
X77239904Y-14416342D02*
X77192285Y-14511580D01*
X77192285Y-14511580D02*
X77144666Y-14559200D01*
X77144666Y-14559200D02*
X77049428Y-14606819D01*
X77049428Y-14606819D02*
X76954190Y-14606819D01*
X76954190Y-14606819D02*
X76858952Y-14559200D01*
X76858952Y-14559200D02*
X76811333Y-14511580D01*
X76811333Y-14511580D02*
X76763714Y-14416342D01*
X76763714Y-14416342D02*
X76716095Y-14225866D01*
X76716095Y-14225866D02*
X76716095Y-13987771D01*
X76716095Y-13987771D02*
X76763714Y-13797295D01*
X76763714Y-13797295D02*
X76811333Y-13702057D01*
X76811333Y-13702057D02*
X76858952Y-13654438D01*
X76858952Y-13654438D02*
X76954190Y-13606819D01*
X77906571Y-13606819D02*
X78001809Y-13606819D01*
X78001809Y-13606819D02*
X78097047Y-13654438D01*
X78097047Y-13654438D02*
X78144666Y-13702057D01*
X78144666Y-13702057D02*
X78192285Y-13797295D01*
X78192285Y-13797295D02*
X78239904Y-13987771D01*
X78239904Y-13987771D02*
X78239904Y-14225866D01*
X78239904Y-14225866D02*
X78192285Y-14416342D01*
X78192285Y-14416342D02*
X78144666Y-14511580D01*
X78144666Y-14511580D02*
X78097047Y-14559200D01*
X78097047Y-14559200D02*
X78001809Y-14606819D01*
X78001809Y-14606819D02*
X77906571Y-14606819D01*
X77906571Y-14606819D02*
X77811333Y-14559200D01*
X77811333Y-14559200D02*
X77763714Y-14511580D01*
X77763714Y-14511580D02*
X77716095Y-14416342D01*
X77716095Y-14416342D02*
X77668476Y-14225866D01*
X77668476Y-14225866D02*
X77668476Y-13987771D01*
X77668476Y-13987771D02*
X77716095Y-13797295D01*
X77716095Y-13797295D02*
X77763714Y-13702057D01*
X77763714Y-13702057D02*
X77811333Y-13654438D01*
X77811333Y-13654438D02*
X77906571Y-13606819D01*
X79097047Y-13940152D02*
X79097047Y-14606819D01*
X78668476Y-13940152D02*
X78668476Y-14463961D01*
X78668476Y-14463961D02*
X78716095Y-14559200D01*
X78716095Y-14559200D02*
X78811333Y-14606819D01*
X78811333Y-14606819D02*
X78954190Y-14606819D01*
X78954190Y-14606819D02*
X79049428Y-14559200D01*
X79049428Y-14559200D02*
X79097047Y-14511580D01*
X79573238Y-14606819D02*
X79573238Y-13606819D01*
X79573238Y-14083009D02*
X80144666Y-14083009D01*
X80144666Y-14606819D02*
X80144666Y-13606819D01*
X43654761Y-14504819D02*
X43083333Y-14504819D01*
X43369047Y-14504819D02*
X43369047Y-13504819D01*
X43369047Y-13504819D02*
X43273809Y-13647676D01*
X43273809Y-13647676D02*
X43178571Y-13742914D01*
X43178571Y-13742914D02*
X43083333Y-13790533D01*
X44083333Y-13838152D02*
X44083333Y-14504819D01*
X44083333Y-13933390D02*
X44130952Y-13885771D01*
X44130952Y-13885771D02*
X44226190Y-13838152D01*
X44226190Y-13838152D02*
X44369047Y-13838152D01*
X44369047Y-13838152D02*
X44464285Y-13885771D01*
X44464285Y-13885771D02*
X44511904Y-13981009D01*
X44511904Y-13981009D02*
X44511904Y-14504819D01*
X45321428Y-13981009D02*
X44988095Y-13981009D01*
X44988095Y-14504819D02*
X44988095Y-13504819D01*
X44988095Y-13504819D02*
X45464285Y-13504819D01*
X27202380Y-14504819D02*
X26630952Y-14504819D01*
X26916666Y-14504819D02*
X26916666Y-13504819D01*
X26916666Y-13504819D02*
X26821428Y-13647676D01*
X26821428Y-13647676D02*
X26726190Y-13742914D01*
X26726190Y-13742914D02*
X26630952Y-13790533D01*
X27821428Y-13504819D02*
X27916666Y-13504819D01*
X27916666Y-13504819D02*
X28011904Y-13552438D01*
X28011904Y-13552438D02*
X28059523Y-13600057D01*
X28059523Y-13600057D02*
X28107142Y-13695295D01*
X28107142Y-13695295D02*
X28154761Y-13885771D01*
X28154761Y-13885771D02*
X28154761Y-14123866D01*
X28154761Y-14123866D02*
X28107142Y-14314342D01*
X28107142Y-14314342D02*
X28059523Y-14409580D01*
X28059523Y-14409580D02*
X28011904Y-14457200D01*
X28011904Y-14457200D02*
X27916666Y-14504819D01*
X27916666Y-14504819D02*
X27821428Y-14504819D01*
X27821428Y-14504819D02*
X27726190Y-14457200D01*
X27726190Y-14457200D02*
X27678571Y-14409580D01*
X27678571Y-14409580D02*
X27630952Y-14314342D01*
X27630952Y-14314342D02*
X27583333Y-14123866D01*
X27583333Y-14123866D02*
X27583333Y-13885771D01*
X27583333Y-13885771D02*
X27630952Y-13695295D01*
X27630952Y-13695295D02*
X27678571Y-13600057D01*
X27678571Y-13600057D02*
X27726190Y-13552438D01*
X27726190Y-13552438D02*
X27821428Y-13504819D01*
X28773809Y-13504819D02*
X28869047Y-13504819D01*
X28869047Y-13504819D02*
X28964285Y-13552438D01*
X28964285Y-13552438D02*
X29011904Y-13600057D01*
X29011904Y-13600057D02*
X29059523Y-13695295D01*
X29059523Y-13695295D02*
X29107142Y-13885771D01*
X29107142Y-13885771D02*
X29107142Y-14123866D01*
X29107142Y-14123866D02*
X29059523Y-14314342D01*
X29059523Y-14314342D02*
X29011904Y-14409580D01*
X29011904Y-14409580D02*
X28964285Y-14457200D01*
X28964285Y-14457200D02*
X28869047Y-14504819D01*
X28869047Y-14504819D02*
X28773809Y-14504819D01*
X28773809Y-14504819D02*
X28678571Y-14457200D01*
X28678571Y-14457200D02*
X28630952Y-14409580D01*
X28630952Y-14409580D02*
X28583333Y-14314342D01*
X28583333Y-14314342D02*
X28535714Y-14123866D01*
X28535714Y-14123866D02*
X28535714Y-13885771D01*
X28535714Y-13885771D02*
X28583333Y-13695295D01*
X28583333Y-13695295D02*
X28630952Y-13600057D01*
X28630952Y-13600057D02*
X28678571Y-13552438D01*
X28678571Y-13552438D02*
X28773809Y-13504819D01*
X29535714Y-13838152D02*
X29535714Y-14504819D01*
X29535714Y-13933390D02*
X29583333Y-13885771D01*
X29583333Y-13885771D02*
X29678571Y-13838152D01*
X29678571Y-13838152D02*
X29821428Y-13838152D01*
X29821428Y-13838152D02*
X29916666Y-13885771D01*
X29916666Y-13885771D02*
X29964285Y-13981009D01*
X29964285Y-13981009D02*
X29964285Y-14504819D01*
X30773809Y-13981009D02*
X30440476Y-13981009D01*
X30440476Y-14504819D02*
X30440476Y-13504819D01*
X30440476Y-13504819D02*
X30916666Y-13504819D01*
X95624819Y-35547619D02*
X95624819Y-36119047D01*
X95624819Y-35833333D02*
X94624819Y-35833333D01*
X94624819Y-35833333D02*
X94767676Y-35928571D01*
X94767676Y-35928571D02*
X94862914Y-36023809D01*
X94862914Y-36023809D02*
X94910533Y-36119047D01*
X94624819Y-34928571D02*
X94624819Y-34833333D01*
X94624819Y-34833333D02*
X94672438Y-34738095D01*
X94672438Y-34738095D02*
X94720057Y-34690476D01*
X94720057Y-34690476D02*
X94815295Y-34642857D01*
X94815295Y-34642857D02*
X95005771Y-34595238D01*
X95005771Y-34595238D02*
X95243866Y-34595238D01*
X95243866Y-34595238D02*
X95434342Y-34642857D01*
X95434342Y-34642857D02*
X95529580Y-34690476D01*
X95529580Y-34690476D02*
X95577200Y-34738095D01*
X95577200Y-34738095D02*
X95624819Y-34833333D01*
X95624819Y-34833333D02*
X95624819Y-34928571D01*
X95624819Y-34928571D02*
X95577200Y-35023809D01*
X95577200Y-35023809D02*
X95529580Y-35071428D01*
X95529580Y-35071428D02*
X95434342Y-35119047D01*
X95434342Y-35119047D02*
X95243866Y-35166666D01*
X95243866Y-35166666D02*
X95005771Y-35166666D01*
X95005771Y-35166666D02*
X94815295Y-35119047D01*
X94815295Y-35119047D02*
X94720057Y-35071428D01*
X94720057Y-35071428D02*
X94672438Y-35023809D01*
X94672438Y-35023809D02*
X94624819Y-34928571D01*
X94624819Y-33976190D02*
X94624819Y-33880952D01*
X94624819Y-33880952D02*
X94672438Y-33785714D01*
X94672438Y-33785714D02*
X94720057Y-33738095D01*
X94720057Y-33738095D02*
X94815295Y-33690476D01*
X94815295Y-33690476D02*
X95005771Y-33642857D01*
X95005771Y-33642857D02*
X95243866Y-33642857D01*
X95243866Y-33642857D02*
X95434342Y-33690476D01*
X95434342Y-33690476D02*
X95529580Y-33738095D01*
X95529580Y-33738095D02*
X95577200Y-33785714D01*
X95577200Y-33785714D02*
X95624819Y-33880952D01*
X95624819Y-33880952D02*
X95624819Y-33976190D01*
X95624819Y-33976190D02*
X95577200Y-34071428D01*
X95577200Y-34071428D02*
X95529580Y-34119047D01*
X95529580Y-34119047D02*
X95434342Y-34166666D01*
X95434342Y-34166666D02*
X95243866Y-34214285D01*
X95243866Y-34214285D02*
X95005771Y-34214285D01*
X95005771Y-34214285D02*
X94815295Y-34166666D01*
X94815295Y-34166666D02*
X94720057Y-34119047D01*
X94720057Y-34119047D02*
X94672438Y-34071428D01*
X94672438Y-34071428D02*
X94624819Y-33976190D01*
X94958152Y-33214285D02*
X95624819Y-33214285D01*
X95053390Y-33214285D02*
X95005771Y-33166666D01*
X95005771Y-33166666D02*
X94958152Y-33071428D01*
X94958152Y-33071428D02*
X94958152Y-32928571D01*
X94958152Y-32928571D02*
X95005771Y-32833333D01*
X95005771Y-32833333D02*
X95101009Y-32785714D01*
X95101009Y-32785714D02*
X95624819Y-32785714D01*
X95101009Y-31976190D02*
X95101009Y-32309523D01*
X95624819Y-32309523D02*
X94624819Y-32309523D01*
X94624819Y-32309523D02*
X94624819Y-31833333D01*
X87824819Y-34095238D02*
X87824819Y-34666666D01*
X87824819Y-34380952D02*
X86824819Y-34380952D01*
X86824819Y-34380952D02*
X86967676Y-34476190D01*
X86967676Y-34476190D02*
X87062914Y-34571428D01*
X87062914Y-34571428D02*
X87110533Y-34666666D01*
X87158152Y-33238095D02*
X87824819Y-33238095D01*
X87158152Y-33666666D02*
X87681961Y-33666666D01*
X87681961Y-33666666D02*
X87777200Y-33619047D01*
X87777200Y-33619047D02*
X87824819Y-33523809D01*
X87824819Y-33523809D02*
X87824819Y-33380952D01*
X87824819Y-33380952D02*
X87777200Y-33285714D01*
X87777200Y-33285714D02*
X87729580Y-33238095D01*
X87301009Y-32428571D02*
X87301009Y-32761904D01*
X87824819Y-32761904D02*
X86824819Y-32761904D01*
X86824819Y-32761904D02*
X86824819Y-32285714D01*
X38550057Y-38142856D02*
X38502438Y-38095237D01*
X38502438Y-38095237D02*
X38454819Y-37999999D01*
X38454819Y-37999999D02*
X38454819Y-37761904D01*
X38454819Y-37761904D02*
X38502438Y-37666666D01*
X38502438Y-37666666D02*
X38550057Y-37619047D01*
X38550057Y-37619047D02*
X38645295Y-37571428D01*
X38645295Y-37571428D02*
X38740533Y-37571428D01*
X38740533Y-37571428D02*
X38883390Y-37619047D01*
X38883390Y-37619047D02*
X39454819Y-38190475D01*
X39454819Y-38190475D02*
X39454819Y-37571428D01*
X38550057Y-37190475D02*
X38502438Y-37142856D01*
X38502438Y-37142856D02*
X38454819Y-37047618D01*
X38454819Y-37047618D02*
X38454819Y-36809523D01*
X38454819Y-36809523D02*
X38502438Y-36714285D01*
X38502438Y-36714285D02*
X38550057Y-36666666D01*
X38550057Y-36666666D02*
X38645295Y-36619047D01*
X38645295Y-36619047D02*
X38740533Y-36619047D01*
X38740533Y-36619047D02*
X38883390Y-36666666D01*
X38883390Y-36666666D02*
X39454819Y-37238094D01*
X39454819Y-37238094D02*
X39454819Y-36619047D01*
X38788152Y-35761904D02*
X39454819Y-35761904D01*
X38788152Y-36190475D02*
X39311961Y-36190475D01*
X39311961Y-36190475D02*
X39407200Y-36142856D01*
X39407200Y-36142856D02*
X39454819Y-36047618D01*
X39454819Y-36047618D02*
X39454819Y-35904761D01*
X39454819Y-35904761D02*
X39407200Y-35809523D01*
X39407200Y-35809523D02*
X39359580Y-35761904D01*
X38931009Y-34952380D02*
X38931009Y-35285713D01*
X39454819Y-35285713D02*
X38454819Y-35285713D01*
X38454819Y-35285713D02*
X38454819Y-34809523D01*
X73969819Y-38496428D02*
X73969819Y-39067856D01*
X73969819Y-38782142D02*
X72969819Y-38782142D01*
X72969819Y-38782142D02*
X73112676Y-38877380D01*
X73112676Y-38877380D02*
X73207914Y-38972618D01*
X73207914Y-38972618D02*
X73255533Y-39067856D01*
X72969819Y-37877380D02*
X72969819Y-37782142D01*
X72969819Y-37782142D02*
X73017438Y-37686904D01*
X73017438Y-37686904D02*
X73065057Y-37639285D01*
X73065057Y-37639285D02*
X73160295Y-37591666D01*
X73160295Y-37591666D02*
X73350771Y-37544047D01*
X73350771Y-37544047D02*
X73588866Y-37544047D01*
X73588866Y-37544047D02*
X73779342Y-37591666D01*
X73779342Y-37591666D02*
X73874580Y-37639285D01*
X73874580Y-37639285D02*
X73922200Y-37686904D01*
X73922200Y-37686904D02*
X73969819Y-37782142D01*
X73969819Y-37782142D02*
X73969819Y-37877380D01*
X73969819Y-37877380D02*
X73922200Y-37972618D01*
X73922200Y-37972618D02*
X73874580Y-38020237D01*
X73874580Y-38020237D02*
X73779342Y-38067856D01*
X73779342Y-38067856D02*
X73588866Y-38115475D01*
X73588866Y-38115475D02*
X73350771Y-38115475D01*
X73350771Y-38115475D02*
X73160295Y-38067856D01*
X73160295Y-38067856D02*
X73065057Y-38020237D01*
X73065057Y-38020237D02*
X73017438Y-37972618D01*
X73017438Y-37972618D02*
X72969819Y-37877380D01*
X72969819Y-36924999D02*
X72969819Y-36829761D01*
X72969819Y-36829761D02*
X73017438Y-36734523D01*
X73017438Y-36734523D02*
X73065057Y-36686904D01*
X73065057Y-36686904D02*
X73160295Y-36639285D01*
X73160295Y-36639285D02*
X73350771Y-36591666D01*
X73350771Y-36591666D02*
X73588866Y-36591666D01*
X73588866Y-36591666D02*
X73779342Y-36639285D01*
X73779342Y-36639285D02*
X73874580Y-36686904D01*
X73874580Y-36686904D02*
X73922200Y-36734523D01*
X73922200Y-36734523D02*
X73969819Y-36829761D01*
X73969819Y-36829761D02*
X73969819Y-36924999D01*
X73969819Y-36924999D02*
X73922200Y-37020237D01*
X73922200Y-37020237D02*
X73874580Y-37067856D01*
X73874580Y-37067856D02*
X73779342Y-37115475D01*
X73779342Y-37115475D02*
X73588866Y-37163094D01*
X73588866Y-37163094D02*
X73350771Y-37163094D01*
X73350771Y-37163094D02*
X73160295Y-37115475D01*
X73160295Y-37115475D02*
X73065057Y-37067856D01*
X73065057Y-37067856D02*
X73017438Y-37020237D01*
X73017438Y-37020237D02*
X72969819Y-36924999D01*
X73969819Y-36163094D02*
X72969819Y-36163094D01*
X73588866Y-36067856D02*
X73969819Y-35782142D01*
X73303152Y-35782142D02*
X73684104Y-36163094D01*
X73969819Y-34782142D02*
X73493628Y-35115475D01*
X73969819Y-35353570D02*
X72969819Y-35353570D01*
X72969819Y-35353570D02*
X72969819Y-34972618D01*
X72969819Y-34972618D02*
X73017438Y-34877380D01*
X73017438Y-34877380D02*
X73065057Y-34829761D01*
X73065057Y-34829761D02*
X73160295Y-34782142D01*
X73160295Y-34782142D02*
X73303152Y-34782142D01*
X73303152Y-34782142D02*
X73398390Y-34829761D01*
X73398390Y-34829761D02*
X73446009Y-34877380D01*
X73446009Y-34877380D02*
X73493628Y-34972618D01*
X73493628Y-34972618D02*
X73493628Y-35353570D01*
D11*
%TO.C,D1*%
X34180000Y-25500000D02*
X35200000Y-25500000D01*
X35200000Y-24030000D02*
X35200000Y-26970000D01*
X35200000Y-26970000D02*
X40640000Y-26970000D01*
X35980000Y-24030000D02*
X35980000Y-26970000D01*
X36100000Y-24030000D02*
X36100000Y-26970000D01*
X36220000Y-24030000D02*
X36220000Y-26970000D01*
X40640000Y-24030000D02*
X35200000Y-24030000D01*
X40640000Y-26970000D02*
X40640000Y-24030000D01*
X41660000Y-25500000D02*
X40640000Y-25500000D01*
%TO.C,D2*%
X33000000Y-40160000D02*
X33000000Y-39140000D01*
X31530000Y-39140000D02*
X34470000Y-39140000D01*
X34470000Y-39140000D02*
X34470000Y-33700000D01*
X31530000Y-38360000D02*
X34470000Y-38360000D01*
X31530000Y-38240000D02*
X34470000Y-38240000D01*
X31530000Y-38120000D02*
X34470000Y-38120000D01*
X31530000Y-33700000D02*
X31530000Y-39140000D01*
X34470000Y-33700000D02*
X31530000Y-33700000D01*
X33000000Y-32680000D02*
X33000000Y-33700000D01*
%TO.C,Neck GND*%
X98800000Y-43300000D02*
X103200000Y-43300000D01*
X98800000Y-47700000D02*
X98800000Y-43300000D01*
X103200000Y-43300000D02*
X103200000Y-47700000D01*
X103200000Y-47700000D02*
X98800000Y-47700000D01*
%TO.C,G1*%
X98800000Y-15300000D02*
X103200000Y-15300000D01*
X98800000Y-19700000D02*
X98800000Y-15300000D01*
X103200000Y-15300000D02*
X103200000Y-19700000D01*
X103200000Y-19700000D02*
X98800000Y-19700000D01*
%TO.C,Chassis GND*%
X14800000Y-43300000D02*
X19200000Y-43300000D01*
X14800000Y-47700000D02*
X14800000Y-43300000D01*
X19200000Y-43300000D02*
X19200000Y-47700000D01*
X19200000Y-47700000D02*
X14800000Y-47700000D01*
%TO.C,FBT 150-250Vpp*%
X14800000Y-14800000D02*
X19200000Y-14800000D01*
X14800000Y-19200000D02*
X14800000Y-14800000D01*
X19200000Y-14800000D02*
X19200000Y-19200000D01*
X19200000Y-19200000D02*
X14800000Y-19200000D01*
%TO.C,10kR*%
X57428000Y-17000000D02*
X58198000Y-17000000D01*
X58198000Y-15630000D02*
X58198000Y-18370000D01*
X58198000Y-18370000D02*
X64738000Y-18370000D01*
X64738000Y-15630000D02*
X58198000Y-15630000D01*
X64738000Y-18370000D02*
X64738000Y-15630000D01*
X65508000Y-17000000D02*
X64738000Y-17000000D01*
%TO.C,100R*%
X17920000Y-23630000D02*
X24460000Y-23630000D01*
X17920000Y-23960000D02*
X17920000Y-23630000D01*
X17920000Y-26040000D02*
X17920000Y-26370000D01*
X17920000Y-26370000D02*
X24460000Y-26370000D01*
X24460000Y-23630000D02*
X24460000Y-23960000D01*
X24460000Y-26370000D02*
X24460000Y-26040000D01*
%TO.C,100uH*%
X72868000Y-17272000D02*
X73108000Y-17272000D01*
X73108000Y-15152000D02*
X73108000Y-19392000D01*
X73108000Y-19392000D02*
X82848000Y-19392000D01*
X82848000Y-15152000D02*
X73108000Y-15152000D01*
X82848000Y-19392000D02*
X82848000Y-15152000D01*
X83088000Y-17272000D02*
X82848000Y-17272000D01*
%TO.C,1nF*%
X39630000Y-15180000D02*
X39630000Y-16335000D01*
X39630000Y-15180000D02*
X48870000Y-15180000D01*
X39630000Y-17665000D02*
X39630000Y-18820000D01*
X39630000Y-18820000D02*
X48870000Y-18820000D01*
X48870000Y-15180000D02*
X48870000Y-16335000D01*
X48870000Y-17665000D02*
X48870000Y-18820000D01*
%TO.C,100nF*%
X24130000Y-15180000D02*
X24130000Y-16335000D01*
X24130000Y-15180000D02*
X33370000Y-15180000D01*
X24130000Y-17665000D02*
X24130000Y-18820000D01*
X24130000Y-18820000D02*
X33370000Y-18820000D01*
X33370000Y-15180000D02*
X33370000Y-16335000D01*
X33370000Y-17665000D02*
X33370000Y-18820000D01*
X92500000Y-30040000D02*
X92500000Y-31330000D01*
X94170000Y-31330000D02*
X90830000Y-31330000D01*
X90830000Y-31330000D02*
X90830000Y-36670000D01*
X94170000Y-36670000D02*
X94170000Y-31330000D01*
X90830000Y-36670000D02*
X94170000Y-36670000D01*
X92500000Y-37960000D02*
X92500000Y-36670000D01*
%TO.C,1uF*%
X83000000Y-27040000D02*
X83000000Y-27380000D01*
X86370000Y-27380000D02*
X79630000Y-27380000D01*
X79630000Y-27380000D02*
X79630000Y-39620000D01*
X86370000Y-39620000D02*
X86370000Y-27380000D01*
X79630000Y-39620000D02*
X86370000Y-39620000D01*
X83000000Y-39960000D02*
X83000000Y-39620000D01*
%TO.C,22uF*%
X52870000Y-36500000D02*
G75*
G02*
X40130000Y-36500000I-6370000J0D01*
G01*
X40130000Y-36500000D02*
G75*
G02*
X52870000Y-36500000I6370000J0D01*
G01*
%TO.C,100kR*%
X72385000Y-33055000D02*
X59645000Y-33055000D01*
X72385000Y-33055000D02*
X72385000Y-42125000D01*
X59645000Y-33055000D02*
X59645000Y-42125000D01*
X72385000Y-42125000D02*
X59645000Y-42125000D01*
X69310000Y-42125000D02*
X62720000Y-42125000D01*
X69310000Y-42125000D02*
X69310000Y-48475000D01*
X62720000Y-42125000D02*
X62720000Y-48475000D01*
X69310000Y-48475000D02*
X62720000Y-48475000D01*
X67719000Y-48475000D02*
X64310000Y-48475000D01*
X67719000Y-48475000D02*
X67719000Y-54925000D01*
X64310000Y-48475000D02*
X64310000Y-54925000D01*
X67719000Y-54925000D02*
X64310000Y-54925000D01*
%TD*%
M02*
