%TF.GenerationSoftware,KiCad,Pcbnew,8.0.3*%
%TF.CreationDate,2024-10-19T22:41:11-05:00*%
%TF.ProjectId,G1 RGB Mod Board,47312052-4742-4204-9d6f-6420426f6172,rev?*%
%TF.SameCoordinates,Original*%
%TF.FileFunction,Drillmap*%
%TF.FilePolarity,Positive*%
%FSLAX45Y45*%
G04 Gerber Fmt 4.5, Leading zero omitted, Abs format (unit mm)*
G04 Created by KiCad (PCBNEW 8.0.3) date 2024-10-19 22:41:11*
%MOMM*%
%LPD*%
G01*
G04 APERTURE LIST*
%ADD10C,0.050000*%
%ADD11C,0.200000*%
G04 APERTURE END LIST*
D10*
X1371600Y-1394800D02*
X10972800Y-1393600D01*
X10972800Y-5356000D02*
X1371600Y-5356000D01*
X1371600Y-1394800D02*
X1371600Y-5356000D01*
X10972800Y-1393600D02*
X10972800Y-5356000D01*
D11*
X1629877Y-5669984D02*
X1629877Y-5469984D01*
X1629877Y-5469984D02*
X1677496Y-5469984D01*
X1677496Y-5469984D02*
X1706067Y-5479508D01*
X1706067Y-5479508D02*
X1725115Y-5498555D01*
X1725115Y-5498555D02*
X1734639Y-5517603D01*
X1734639Y-5517603D02*
X1744162Y-5555698D01*
X1744162Y-5555698D02*
X1744162Y-5584270D01*
X1744162Y-5584270D02*
X1734639Y-5622365D01*
X1734639Y-5622365D02*
X1725115Y-5641412D01*
X1725115Y-5641412D02*
X1706067Y-5660460D01*
X1706067Y-5660460D02*
X1677496Y-5669984D01*
X1677496Y-5669984D02*
X1629877Y-5669984D01*
X1829877Y-5669984D02*
X1829877Y-5536650D01*
X1829877Y-5574746D02*
X1839401Y-5555698D01*
X1839401Y-5555698D02*
X1848924Y-5546174D01*
X1848924Y-5546174D02*
X1867972Y-5536650D01*
X1867972Y-5536650D02*
X1887020Y-5536650D01*
X1953686Y-5669984D02*
X1953686Y-5536650D01*
X1953686Y-5469984D02*
X1944162Y-5479508D01*
X1944162Y-5479508D02*
X1953686Y-5489031D01*
X1953686Y-5489031D02*
X1963210Y-5479508D01*
X1963210Y-5479508D02*
X1953686Y-5469984D01*
X1953686Y-5469984D02*
X1953686Y-5489031D01*
X2077496Y-5669984D02*
X2058448Y-5660460D01*
X2058448Y-5660460D02*
X2048924Y-5641412D01*
X2048924Y-5641412D02*
X2048924Y-5469984D01*
X2182258Y-5669984D02*
X2163210Y-5660460D01*
X2163210Y-5660460D02*
X2153686Y-5641412D01*
X2153686Y-5641412D02*
X2153686Y-5469984D01*
X2410829Y-5669984D02*
X2410829Y-5469984D01*
X2410829Y-5469984D02*
X2477496Y-5612841D01*
X2477496Y-5612841D02*
X2544163Y-5469984D01*
X2544163Y-5469984D02*
X2544163Y-5669984D01*
X2725115Y-5669984D02*
X2725115Y-5565222D01*
X2725115Y-5565222D02*
X2715591Y-5546174D01*
X2715591Y-5546174D02*
X2696544Y-5536650D01*
X2696544Y-5536650D02*
X2658448Y-5536650D01*
X2658448Y-5536650D02*
X2639401Y-5546174D01*
X2725115Y-5660460D02*
X2706067Y-5669984D01*
X2706067Y-5669984D02*
X2658448Y-5669984D01*
X2658448Y-5669984D02*
X2639401Y-5660460D01*
X2639401Y-5660460D02*
X2629877Y-5641412D01*
X2629877Y-5641412D02*
X2629877Y-5622365D01*
X2629877Y-5622365D02*
X2639401Y-5603317D01*
X2639401Y-5603317D02*
X2658448Y-5593793D01*
X2658448Y-5593793D02*
X2706067Y-5593793D01*
X2706067Y-5593793D02*
X2725115Y-5584270D01*
X2820353Y-5536650D02*
X2820353Y-5736650D01*
X2820353Y-5546174D02*
X2839401Y-5536650D01*
X2839401Y-5536650D02*
X2877496Y-5536650D01*
X2877496Y-5536650D02*
X2896543Y-5546174D01*
X2896543Y-5546174D02*
X2906067Y-5555698D01*
X2906067Y-5555698D02*
X2915591Y-5574746D01*
X2915591Y-5574746D02*
X2915591Y-5631888D01*
X2915591Y-5631888D02*
X2906067Y-5650936D01*
X2906067Y-5650936D02*
X2896543Y-5660460D01*
X2896543Y-5660460D02*
X2877496Y-5669984D01*
X2877496Y-5669984D02*
X2839401Y-5669984D01*
X2839401Y-5669984D02*
X2820353Y-5660460D01*
X3001305Y-5650936D02*
X3010829Y-5660460D01*
X3010829Y-5660460D02*
X3001305Y-5669984D01*
X3001305Y-5669984D02*
X2991782Y-5660460D01*
X2991782Y-5660460D02*
X3001305Y-5650936D01*
X3001305Y-5650936D02*
X3001305Y-5669984D01*
X3001305Y-5546174D02*
X3010829Y-5555698D01*
X3010829Y-5555698D02*
X3001305Y-5565222D01*
X3001305Y-5565222D02*
X2991782Y-5555698D01*
X2991782Y-5555698D02*
X3001305Y-5546174D01*
X3001305Y-5546174D02*
X3001305Y-5565222D01*
M02*
