%TF.GenerationSoftware,KiCad,Pcbnew,8.0.3*%
%TF.CreationDate,2024-10-19T22:40:53-05:00*%
%TF.ProjectId,G1 RGB Mod Board,47312052-4742-4204-9d6f-6420426f6172,rev?*%
%TF.SameCoordinates,Original*%
%TF.FileFunction,Copper,L1,Top*%
%TF.FilePolarity,Positive*%
%FSLAX46Y46*%
G04 Gerber Fmt 4.6, Leading zero omitted, Abs format (unit mm)*
G04 Created by KiCad (PCBNEW 8.0.3) date 2024-10-19 22:40:53*
%MOMM*%
%LPD*%
G01*
G04 APERTURE LIST*
%TA.AperFunction,ComponentPad*%
%ADD10R,2.200000X2.200000*%
%TD*%
%TA.AperFunction,ComponentPad*%
%ADD11O,2.200000X2.200000*%
%TD*%
%TA.AperFunction,SMDPad,CuDef*%
%ADD12R,4.000000X4.000000*%
%TD*%
%TA.AperFunction,ComponentPad*%
%ADD13C,1.600000*%
%TD*%
%TA.AperFunction,ComponentPad*%
%ADD14O,1.600000X1.600000*%
%TD*%
%TA.AperFunction,ComponentPad*%
%ADD15C,2.000000*%
%TD*%
%TA.AperFunction,ComponentPad*%
%ADD16O,2.000000X2.000000*%
%TD*%
%TA.AperFunction,ComponentPad*%
%ADD17C,1.800000*%
%TD*%
%TA.AperFunction,Conductor*%
%ADD18C,1.500000*%
%TD*%
G04 APERTURE END LIST*
D10*
X35888000Y-28260000D03*
D11*
X46048000Y-28260000D03*
D10*
X36048000Y-44260000D03*
D11*
X36048000Y-34100000D03*
D12*
X104048000Y-48260000D03*
X104048000Y-20260000D03*
X20048000Y-48260000D03*
X20048000Y-19760000D03*
D13*
X59436000Y-19760000D03*
D14*
X69596000Y-19760000D03*
D13*
X20428000Y-27760000D03*
D14*
X28048000Y-27760000D03*
D15*
X74676000Y-20032000D03*
D16*
X87376000Y-20032000D03*
D13*
X43548000Y-19760000D03*
X51048000Y-19760000D03*
X28048000Y-19760000D03*
X35548000Y-19760000D03*
X95548000Y-31760000D03*
D14*
X95548000Y-41760000D03*
D13*
X86048000Y-28760000D03*
D14*
X86048000Y-43760000D03*
D13*
X49548000Y-41760000D03*
X49548000Y-36760000D03*
D17*
X66523000Y-39685000D03*
X69063000Y-39685000D03*
X71603000Y-39685000D03*
D18*
X95548000Y-23780000D02*
X98552000Y-20776000D01*
X98552000Y-20776000D02*
X98552000Y-20260000D01*
X95548000Y-31760000D02*
X95548000Y-23780000D01*
X94488000Y-20320000D02*
X94488000Y-20260000D01*
X86048000Y-28760000D02*
X94488000Y-20320000D01*
X87604000Y-20260000D02*
X104048000Y-20260000D01*
X87376000Y-20032000D02*
X87604000Y-20260000D01*
X74404000Y-19760000D02*
X74676000Y-20032000D01*
X69596000Y-19760000D02*
X74404000Y-19760000D01*
X103312000Y-19524000D02*
X104048000Y-20260000D01*
X69868000Y-20032000D02*
X69596000Y-19760000D01*
X69063000Y-29387000D02*
X59436000Y-19760000D01*
X69063000Y-39685000D02*
X69063000Y-29387000D01*
X95548000Y-48216000D02*
X95504000Y-48260000D01*
X95548000Y-41760000D02*
X95548000Y-48216000D01*
X95504000Y-48260000D02*
X86360000Y-48260000D01*
X104048000Y-48260000D02*
X95504000Y-48260000D01*
X86048000Y-47948000D02*
X86360000Y-48260000D01*
X86048000Y-43760000D02*
X86048000Y-47948000D01*
X86360000Y-48260000D02*
X72136000Y-48260000D01*
X103548000Y-19760000D02*
X104048000Y-20260000D01*
X71603000Y-39685000D02*
X71603000Y-47727000D01*
X72136000Y-48260000D02*
X49784000Y-48260000D01*
X71603000Y-47727000D02*
X72136000Y-48260000D01*
X63598000Y-36760000D02*
X66523000Y-39685000D01*
X49548000Y-36760000D02*
X63598000Y-36760000D01*
X51048000Y-23260000D02*
X46048000Y-28260000D01*
X51048000Y-19760000D02*
X51048000Y-23260000D01*
X43548000Y-20600000D02*
X35888000Y-28260000D01*
X43548000Y-19760000D02*
X43548000Y-20600000D01*
X49548000Y-31760000D02*
X46048000Y-28260000D01*
X49548000Y-36760000D02*
X49548000Y-31760000D01*
X49548000Y-41760000D02*
X49548000Y-48024000D01*
X49784000Y-48260000D02*
X36068000Y-48260000D01*
X49548000Y-48024000D02*
X49784000Y-48260000D01*
X36048000Y-44260000D02*
X36048000Y-48240000D01*
X36048000Y-48240000D02*
X36068000Y-48260000D01*
X36068000Y-48260000D02*
X20048000Y-48260000D01*
X35888000Y-33940000D02*
X36048000Y-34100000D01*
X35888000Y-28260000D02*
X35888000Y-33940000D01*
X35548000Y-27920000D02*
X35888000Y-28260000D01*
X35548000Y-19760000D02*
X35548000Y-27920000D01*
X28048000Y-27760000D02*
X28048000Y-19760000D01*
X20048000Y-27380000D02*
X20428000Y-27760000D01*
X20048000Y-19760000D02*
X20048000Y-27380000D01*
%TA.AperFunction,Conductor*%
G36*
X108659191Y-14970907D02*
G01*
X108695155Y-15020407D01*
X108700000Y-15051000D01*
X108700000Y-52449000D01*
X108681093Y-52507191D01*
X108631593Y-52543155D01*
X108601000Y-52548000D01*
X14723000Y-52548000D01*
X14664809Y-52529093D01*
X14628845Y-52479593D01*
X14624000Y-52449000D01*
X14624000Y-46240253D01*
X17847500Y-46240253D01*
X17847500Y-50279746D01*
X17847501Y-50279758D01*
X17859132Y-50338227D01*
X17859133Y-50338231D01*
X17903448Y-50404552D01*
X17969769Y-50448867D01*
X18014231Y-50457711D01*
X18028241Y-50460498D01*
X18028246Y-50460498D01*
X18028252Y-50460500D01*
X18028253Y-50460500D01*
X22067747Y-50460500D01*
X22067748Y-50460500D01*
X22126231Y-50448867D01*
X22192552Y-50404552D01*
X22236867Y-50338231D01*
X22248500Y-50279748D01*
X22248500Y-49309500D01*
X22267407Y-49251309D01*
X22316907Y-49215345D01*
X22347500Y-49210500D01*
X35974383Y-49210500D01*
X35974384Y-49210500D01*
X49690383Y-49210500D01*
X49690384Y-49210500D01*
X72042383Y-49210500D01*
X72042384Y-49210500D01*
X86266384Y-49210500D01*
X86453617Y-49210500D01*
X95410383Y-49210500D01*
X95410384Y-49210500D01*
X101748500Y-49210500D01*
X101806691Y-49229407D01*
X101842655Y-49278907D01*
X101847500Y-49309500D01*
X101847500Y-50279746D01*
X101847501Y-50279758D01*
X101859132Y-50338227D01*
X101859133Y-50338231D01*
X101903448Y-50404552D01*
X101969769Y-50448867D01*
X102014231Y-50457711D01*
X102028241Y-50460498D01*
X102028246Y-50460498D01*
X102028252Y-50460500D01*
X102028253Y-50460500D01*
X106067747Y-50460500D01*
X106067748Y-50460500D01*
X106126231Y-50448867D01*
X106192552Y-50404552D01*
X106236867Y-50338231D01*
X106248500Y-50279748D01*
X106248500Y-46240252D01*
X106236867Y-46181769D01*
X106192552Y-46115448D01*
X106192548Y-46115445D01*
X106126233Y-46071134D01*
X106126231Y-46071133D01*
X106126228Y-46071132D01*
X106126227Y-46071132D01*
X106067758Y-46059501D01*
X106067748Y-46059500D01*
X102028252Y-46059500D01*
X102028251Y-46059500D01*
X102028241Y-46059501D01*
X101969772Y-46071132D01*
X101969766Y-46071134D01*
X101903451Y-46115445D01*
X101903445Y-46115451D01*
X101859134Y-46181766D01*
X101859132Y-46181772D01*
X101847501Y-46240241D01*
X101847500Y-46240253D01*
X101847500Y-47210500D01*
X101828593Y-47268691D01*
X101779093Y-47304655D01*
X101748500Y-47309500D01*
X96597500Y-47309500D01*
X96539309Y-47290593D01*
X96503345Y-47241093D01*
X96498500Y-47210500D01*
X96498500Y-42087922D01*
X96502762Y-42059186D01*
X96534024Y-41956132D01*
X96553341Y-41760000D01*
X96553341Y-41759996D01*
X96534025Y-41563873D01*
X96534024Y-41563870D01*
X96534024Y-41563868D01*
X96476814Y-41375273D01*
X96383910Y-41201462D01*
X96383906Y-41201457D01*
X96258887Y-41049121D01*
X96258878Y-41049112D01*
X96106542Y-40924093D01*
X96106540Y-40924092D01*
X96106538Y-40924090D01*
X96065618Y-40902218D01*
X95932732Y-40831188D01*
X95932730Y-40831187D01*
X95744129Y-40773975D01*
X95744126Y-40773974D01*
X95548003Y-40754659D01*
X95547997Y-40754659D01*
X95351873Y-40773974D01*
X95351870Y-40773975D01*
X95163269Y-40831187D01*
X95163267Y-40831188D01*
X94989467Y-40924087D01*
X94989457Y-40924093D01*
X94837121Y-41049112D01*
X94837112Y-41049121D01*
X94712093Y-41201457D01*
X94712087Y-41201467D01*
X94619188Y-41375267D01*
X94619187Y-41375269D01*
X94561975Y-41563870D01*
X94561974Y-41563873D01*
X94542659Y-41759996D01*
X94542659Y-41760003D01*
X94561974Y-41956126D01*
X94561975Y-41956128D01*
X94561975Y-41956130D01*
X94561976Y-41956132D01*
X94593237Y-42059186D01*
X94597500Y-42087922D01*
X94597500Y-47210500D01*
X94578593Y-47268691D01*
X94529093Y-47304655D01*
X94498500Y-47309500D01*
X87097500Y-47309500D01*
X87039309Y-47290593D01*
X87003345Y-47241093D01*
X86998500Y-47210500D01*
X86998500Y-44087922D01*
X87002762Y-44059186D01*
X87034024Y-43956132D01*
X87053341Y-43760000D01*
X87053341Y-43759996D01*
X87034025Y-43563873D01*
X87034024Y-43563870D01*
X87034024Y-43563868D01*
X86976814Y-43375273D01*
X86883910Y-43201462D01*
X86833667Y-43140241D01*
X86758887Y-43049121D01*
X86758878Y-43049112D01*
X86606542Y-42924093D01*
X86606540Y-42924092D01*
X86606538Y-42924090D01*
X86565618Y-42902218D01*
X86432732Y-42831188D01*
X86432730Y-42831187D01*
X86244129Y-42773975D01*
X86244126Y-42773974D01*
X86048003Y-42754659D01*
X86047997Y-42754659D01*
X85851873Y-42773974D01*
X85851870Y-42773975D01*
X85663269Y-42831187D01*
X85663267Y-42831188D01*
X85489467Y-42924087D01*
X85489457Y-42924093D01*
X85337121Y-43049112D01*
X85337112Y-43049121D01*
X85212093Y-43201457D01*
X85212087Y-43201467D01*
X85119188Y-43375267D01*
X85119187Y-43375269D01*
X85061975Y-43563870D01*
X85061974Y-43563873D01*
X85042659Y-43759996D01*
X85042659Y-43760003D01*
X85061974Y-43956126D01*
X85061975Y-43956128D01*
X85061975Y-43956130D01*
X85061976Y-43956132D01*
X85093237Y-44059186D01*
X85097500Y-44087922D01*
X85097500Y-47210500D01*
X85078593Y-47268691D01*
X85029093Y-47304655D01*
X84998500Y-47309500D01*
X72652500Y-47309500D01*
X72594309Y-47290593D01*
X72558345Y-47241093D01*
X72553500Y-47210500D01*
X72553500Y-40268361D01*
X72563879Y-40224233D01*
X72633582Y-40084250D01*
X72689397Y-39888083D01*
X72708215Y-39685000D01*
X72689397Y-39481917D01*
X72633582Y-39285750D01*
X72542673Y-39103179D01*
X72419764Y-38940421D01*
X72269041Y-38803019D01*
X72095637Y-38695652D01*
X71905456Y-38621976D01*
X71905455Y-38621975D01*
X71905453Y-38621975D01*
X71704976Y-38584500D01*
X71501024Y-38584500D01*
X71300546Y-38621975D01*
X71230632Y-38649059D01*
X71110363Y-38695652D01*
X70936959Y-38803019D01*
X70786237Y-38940420D01*
X70663328Y-39103177D01*
X70663323Y-39103186D01*
X70652500Y-39124922D01*
X70572418Y-39285750D01*
X70516603Y-39481917D01*
X70497785Y-39685000D01*
X70516603Y-39888083D01*
X70572417Y-40084248D01*
X70572419Y-40084252D01*
X70642121Y-40224233D01*
X70652500Y-40268361D01*
X70652500Y-47210500D01*
X70633593Y-47268691D01*
X70584093Y-47304655D01*
X70553500Y-47309500D01*
X50597500Y-47309500D01*
X50539309Y-47290593D01*
X50503345Y-47241093D01*
X50498500Y-47210500D01*
X50498500Y-42087922D01*
X50502762Y-42059186D01*
X50534024Y-41956132D01*
X50553341Y-41760000D01*
X50553341Y-41759996D01*
X50534025Y-41563873D01*
X50534024Y-41563870D01*
X50534024Y-41563868D01*
X50476814Y-41375273D01*
X50383910Y-41201462D01*
X50383906Y-41201457D01*
X50258887Y-41049121D01*
X50258878Y-41049112D01*
X50106542Y-40924093D01*
X50106540Y-40924092D01*
X50106538Y-40924090D01*
X50065618Y-40902218D01*
X49932732Y-40831188D01*
X49932730Y-40831187D01*
X49744129Y-40773975D01*
X49744126Y-40773974D01*
X49548003Y-40754659D01*
X49547997Y-40754659D01*
X49351873Y-40773974D01*
X49351870Y-40773975D01*
X49163269Y-40831187D01*
X49163267Y-40831188D01*
X48989467Y-40924087D01*
X48989457Y-40924093D01*
X48837121Y-41049112D01*
X48837112Y-41049121D01*
X48712093Y-41201457D01*
X48712087Y-41201467D01*
X48619188Y-41375267D01*
X48619187Y-41375269D01*
X48561975Y-41563870D01*
X48561974Y-41563873D01*
X48542659Y-41759996D01*
X48542659Y-41760003D01*
X48561974Y-41956126D01*
X48561975Y-41956128D01*
X48561975Y-41956130D01*
X48561976Y-41956132D01*
X48593237Y-42059186D01*
X48597500Y-42087922D01*
X48597500Y-47210500D01*
X48578593Y-47268691D01*
X48529093Y-47304655D01*
X48498500Y-47309500D01*
X37097500Y-47309500D01*
X37039309Y-47290593D01*
X37003345Y-47241093D01*
X36998500Y-47210500D01*
X36998500Y-45659500D01*
X37017407Y-45601309D01*
X37066907Y-45565345D01*
X37097500Y-45560500D01*
X37167747Y-45560500D01*
X37167748Y-45560500D01*
X37226231Y-45548867D01*
X37292552Y-45504552D01*
X37336867Y-45438231D01*
X37348500Y-45379748D01*
X37348500Y-43140252D01*
X37336867Y-43081769D01*
X37292552Y-43015448D01*
X37292548Y-43015445D01*
X37226233Y-42971134D01*
X37226231Y-42971133D01*
X37226228Y-42971132D01*
X37226227Y-42971132D01*
X37167758Y-42959501D01*
X37167748Y-42959500D01*
X34928252Y-42959500D01*
X34928251Y-42959500D01*
X34928241Y-42959501D01*
X34869772Y-42971132D01*
X34869766Y-42971134D01*
X34803451Y-43015445D01*
X34803445Y-43015451D01*
X34759134Y-43081766D01*
X34759132Y-43081772D01*
X34747501Y-43140241D01*
X34747500Y-43140253D01*
X34747500Y-45379746D01*
X34747501Y-45379758D01*
X34759132Y-45438227D01*
X34759133Y-45438231D01*
X34803448Y-45504552D01*
X34869769Y-45548867D01*
X34914231Y-45557711D01*
X34928241Y-45560498D01*
X34928246Y-45560498D01*
X34928252Y-45560500D01*
X34998500Y-45560500D01*
X35056691Y-45579407D01*
X35092655Y-45628907D01*
X35097500Y-45659500D01*
X35097500Y-47210500D01*
X35078593Y-47268691D01*
X35029093Y-47304655D01*
X34998500Y-47309500D01*
X22347500Y-47309500D01*
X22289309Y-47290593D01*
X22253345Y-47241093D01*
X22248500Y-47210500D01*
X22248500Y-46240253D01*
X22248498Y-46240241D01*
X22245711Y-46226231D01*
X22236867Y-46181769D01*
X22192552Y-46115448D01*
X22192548Y-46115445D01*
X22126233Y-46071134D01*
X22126231Y-46071133D01*
X22126228Y-46071132D01*
X22126227Y-46071132D01*
X22067758Y-46059501D01*
X22067748Y-46059500D01*
X18028252Y-46059500D01*
X18028251Y-46059500D01*
X18028241Y-46059501D01*
X17969772Y-46071132D01*
X17969766Y-46071134D01*
X17903451Y-46115445D01*
X17903445Y-46115451D01*
X17859134Y-46181766D01*
X17859132Y-46181772D01*
X17847501Y-46240241D01*
X17847500Y-46240253D01*
X14624000Y-46240253D01*
X14624000Y-17740253D01*
X17847500Y-17740253D01*
X17847500Y-21779746D01*
X17847501Y-21779758D01*
X17859132Y-21838227D01*
X17859133Y-21838231D01*
X17903448Y-21904552D01*
X17969769Y-21948867D01*
X18014231Y-21957711D01*
X18028241Y-21960498D01*
X18028246Y-21960498D01*
X18028252Y-21960500D01*
X18998500Y-21960500D01*
X19056691Y-21979407D01*
X19092655Y-22028907D01*
X19097500Y-22059500D01*
X19097500Y-27473618D01*
X19124084Y-27607265D01*
X19134027Y-27657250D01*
X19205674Y-27830225D01*
X19205680Y-27830237D01*
X19268394Y-27924093D01*
X19309698Y-27985908D01*
X19309701Y-27985911D01*
X19524020Y-28200230D01*
X19541324Y-28223562D01*
X19569079Y-28275487D01*
X19592089Y-28318536D01*
X19592093Y-28318542D01*
X19717112Y-28470878D01*
X19717121Y-28470887D01*
X19830419Y-28563868D01*
X19869462Y-28595910D01*
X20043273Y-28688814D01*
X20231868Y-28746024D01*
X20231870Y-28746024D01*
X20231873Y-28746025D01*
X20427997Y-28765341D01*
X20428000Y-28765341D01*
X20428003Y-28765341D01*
X20624126Y-28746025D01*
X20624127Y-28746024D01*
X20624132Y-28746024D01*
X20812727Y-28688814D01*
X20986538Y-28595910D01*
X21138883Y-28470883D01*
X21263910Y-28318538D01*
X21356814Y-28144727D01*
X21414024Y-27956132D01*
X21422862Y-27866402D01*
X21433341Y-27760003D01*
X21433341Y-27759996D01*
X21414025Y-27563873D01*
X21414024Y-27563870D01*
X21414024Y-27563868D01*
X21356814Y-27375273D01*
X21263910Y-27201462D01*
X21204798Y-27129434D01*
X21138887Y-27049121D01*
X21138878Y-27049112D01*
X21034695Y-26963611D01*
X21001708Y-26912079D01*
X20998500Y-26887083D01*
X20998500Y-22059500D01*
X21017407Y-22001309D01*
X21066907Y-21965345D01*
X21097500Y-21960500D01*
X22067747Y-21960500D01*
X22067748Y-21960500D01*
X22126231Y-21948867D01*
X22192552Y-21904552D01*
X22236867Y-21838231D01*
X22248500Y-21779748D01*
X22248500Y-19759996D01*
X27042659Y-19759996D01*
X27042659Y-19760003D01*
X27061974Y-19956126D01*
X27061975Y-19956128D01*
X27061975Y-19956130D01*
X27061976Y-19956132D01*
X27093237Y-20059186D01*
X27097500Y-20087922D01*
X27097500Y-27432076D01*
X27093237Y-27460814D01*
X27061975Y-27563867D01*
X27061974Y-27563873D01*
X27042659Y-27759996D01*
X27042659Y-27760003D01*
X27061974Y-27956126D01*
X27061975Y-27956129D01*
X27119187Y-28144730D01*
X27119188Y-28144732D01*
X27149514Y-28201467D01*
X27212090Y-28318538D01*
X27212092Y-28318540D01*
X27212093Y-28318542D01*
X27337112Y-28470878D01*
X27337121Y-28470887D01*
X27450419Y-28563868D01*
X27489462Y-28595910D01*
X27663273Y-28688814D01*
X27851868Y-28746024D01*
X27851870Y-28746024D01*
X27851873Y-28746025D01*
X28047997Y-28765341D01*
X28048000Y-28765341D01*
X28048003Y-28765341D01*
X28244126Y-28746025D01*
X28244127Y-28746024D01*
X28244132Y-28746024D01*
X28432727Y-28688814D01*
X28606538Y-28595910D01*
X28758883Y-28470883D01*
X28883910Y-28318538D01*
X28976814Y-28144727D01*
X29034024Y-27956132D01*
X29042862Y-27866402D01*
X29053341Y-27760003D01*
X29053341Y-27759996D01*
X29034025Y-27563873D01*
X29034024Y-27563867D01*
X29002763Y-27460814D01*
X28998500Y-27432076D01*
X28998500Y-20087922D01*
X29002762Y-20059186D01*
X29034024Y-19956132D01*
X29053341Y-19760000D01*
X29053341Y-19759996D01*
X34542659Y-19759996D01*
X34542659Y-19760003D01*
X34561974Y-19956126D01*
X34561975Y-19956128D01*
X34561975Y-19956130D01*
X34561976Y-19956132D01*
X34593237Y-20059186D01*
X34597500Y-20087922D01*
X34597500Y-27080225D01*
X34595598Y-27099539D01*
X34587500Y-27140248D01*
X34587500Y-29379746D01*
X34587501Y-29379758D01*
X34599132Y-29438227D01*
X34599134Y-29438233D01*
X34643445Y-29504548D01*
X34643448Y-29504552D01*
X34709769Y-29548867D01*
X34754231Y-29557711D01*
X34768241Y-29560498D01*
X34768246Y-29560498D01*
X34768252Y-29560500D01*
X34838500Y-29560500D01*
X34896691Y-29579407D01*
X34932655Y-29628907D01*
X34937500Y-29659500D01*
X34937500Y-33387391D01*
X34919599Y-33444171D01*
X34917434Y-33447261D01*
X34917426Y-33447276D01*
X34821262Y-33653500D01*
X34762363Y-33873315D01*
X34742532Y-34099996D01*
X34742532Y-34100003D01*
X34762363Y-34326684D01*
X34821262Y-34546500D01*
X34917426Y-34752723D01*
X34917434Y-34752737D01*
X35047946Y-34939130D01*
X35047947Y-34939132D01*
X35047950Y-34939135D01*
X35047953Y-34939139D01*
X35208861Y-35100047D01*
X35208864Y-35100049D01*
X35208867Y-35100052D01*
X35208869Y-35100053D01*
X35333131Y-35187061D01*
X35395266Y-35230568D01*
X35395272Y-35230571D01*
X35395276Y-35230573D01*
X35601500Y-35326737D01*
X35601504Y-35326739D01*
X35821308Y-35385635D01*
X35821312Y-35385635D01*
X35821315Y-35385636D01*
X36047997Y-35405468D01*
X36048000Y-35405468D01*
X36048003Y-35405468D01*
X36274684Y-35385636D01*
X36274685Y-35385635D01*
X36274692Y-35385635D01*
X36494496Y-35326739D01*
X36700734Y-35230568D01*
X36887139Y-35100047D01*
X37048047Y-34939139D01*
X37178568Y-34752734D01*
X37274739Y-34546496D01*
X37333635Y-34326692D01*
X37353468Y-34100000D01*
X37333635Y-33873308D01*
X37274739Y-33653504D01*
X37178568Y-33447266D01*
X37048053Y-33260869D01*
X37048052Y-33260867D01*
X37048049Y-33260864D01*
X37048047Y-33260861D01*
X36887139Y-33099953D01*
X36880710Y-33095451D01*
X36843891Y-33046583D01*
X36838500Y-33014359D01*
X36838500Y-29659500D01*
X36857407Y-29601309D01*
X36906907Y-29565345D01*
X36937500Y-29560500D01*
X37007747Y-29560500D01*
X37007748Y-29560500D01*
X37066231Y-29548867D01*
X37132552Y-29504552D01*
X37176867Y-29438231D01*
X37188500Y-29379748D01*
X37188500Y-28344718D01*
X37207407Y-28286527D01*
X37217496Y-28274714D01*
X37232214Y-28259996D01*
X44742532Y-28259996D01*
X44742532Y-28260003D01*
X44762363Y-28486684D01*
X44762364Y-28486691D01*
X44762365Y-28486692D01*
X44791629Y-28595906D01*
X44821262Y-28706500D01*
X44917426Y-28912723D01*
X44917434Y-28912737D01*
X45047946Y-29099130D01*
X45047947Y-29099132D01*
X45047950Y-29099135D01*
X45047953Y-29099139D01*
X45208861Y-29260047D01*
X45208864Y-29260049D01*
X45208867Y-29260052D01*
X45208869Y-29260053D01*
X45292401Y-29318542D01*
X45395266Y-29390568D01*
X45395272Y-29390571D01*
X45395276Y-29390573D01*
X45601500Y-29486737D01*
X45601504Y-29486739D01*
X45821308Y-29545635D01*
X45821314Y-29545635D01*
X45821316Y-29545636D01*
X45891206Y-29551750D01*
X45969644Y-29558612D01*
X46025966Y-29582518D01*
X46031021Y-29587231D01*
X48568504Y-32124714D01*
X48596281Y-32179231D01*
X48597500Y-32194718D01*
X48597500Y-36432076D01*
X48593237Y-36460814D01*
X48561975Y-36563867D01*
X48561974Y-36563873D01*
X48542659Y-36759996D01*
X48542659Y-36760003D01*
X48561974Y-36956126D01*
X48561975Y-36956129D01*
X48619187Y-37144730D01*
X48619188Y-37144732D01*
X48690218Y-37277618D01*
X48712090Y-37318538D01*
X48712092Y-37318540D01*
X48712093Y-37318542D01*
X48837112Y-37470878D01*
X48837121Y-37470887D01*
X48989457Y-37595906D01*
X48989462Y-37595910D01*
X49163273Y-37688814D01*
X49351868Y-37746024D01*
X49351870Y-37746024D01*
X49351873Y-37746025D01*
X49547997Y-37765341D01*
X49548000Y-37765341D01*
X49548003Y-37765341D01*
X49744126Y-37746025D01*
X49744127Y-37746024D01*
X49744132Y-37746024D01*
X49847185Y-37714762D01*
X49875923Y-37710500D01*
X63163282Y-37710500D01*
X63221473Y-37729407D01*
X63233286Y-37739496D01*
X65440186Y-39946396D01*
X65465402Y-39989306D01*
X65492417Y-40084248D01*
X65492418Y-40084250D01*
X65583327Y-40266821D01*
X65706236Y-40429579D01*
X65856959Y-40566981D01*
X66030363Y-40674348D01*
X66220544Y-40748024D01*
X66421024Y-40785500D01*
X66624976Y-40785500D01*
X66825456Y-40748024D01*
X67015637Y-40674348D01*
X67189041Y-40566981D01*
X67339764Y-40429579D01*
X67462673Y-40266821D01*
X67553582Y-40084250D01*
X67609397Y-39888083D01*
X67628215Y-39685000D01*
X67609397Y-39481917D01*
X67553582Y-39285750D01*
X67462673Y-39103179D01*
X67339764Y-38940421D01*
X67189041Y-38803019D01*
X67015637Y-38695652D01*
X66825456Y-38621976D01*
X66825455Y-38621975D01*
X66825453Y-38621975D01*
X66821052Y-38620723D01*
X66821642Y-38618648D01*
X66777618Y-38595408D01*
X64203911Y-36021701D01*
X64203908Y-36021698D01*
X64048230Y-35917677D01*
X64048231Y-35917677D01*
X64048229Y-35917676D01*
X63946901Y-35875705D01*
X63946901Y-35875704D01*
X63875251Y-35846027D01*
X63783433Y-35827763D01*
X63691619Y-35809500D01*
X63691617Y-35809500D01*
X63691616Y-35809500D01*
X50597500Y-35809500D01*
X50539309Y-35790593D01*
X50503345Y-35741093D01*
X50498500Y-35710500D01*
X50498500Y-31666385D01*
X50498499Y-31666381D01*
X50478108Y-31563868D01*
X50461973Y-31482750D01*
X50440983Y-31432076D01*
X50390322Y-31309769D01*
X50390320Y-31309767D01*
X50390320Y-31309765D01*
X50353542Y-31254723D01*
X50353542Y-31254724D01*
X50286302Y-31154092D01*
X50286300Y-31154090D01*
X50153908Y-31021697D01*
X50153908Y-31021698D01*
X47462214Y-28330004D01*
X47434437Y-28275487D01*
X47444008Y-28215055D01*
X47462214Y-28189996D01*
X49585928Y-26066282D01*
X51786302Y-23865908D01*
X51860283Y-23755187D01*
X51890319Y-23710237D01*
X51890325Y-23710225D01*
X51900201Y-23686381D01*
X51961973Y-23537250D01*
X51998500Y-23353617D01*
X51998500Y-23166383D01*
X51998500Y-20087922D01*
X52002762Y-20059186D01*
X52034024Y-19956132D01*
X52053341Y-19760000D01*
X52053341Y-19759996D01*
X58430659Y-19759996D01*
X58430659Y-19760003D01*
X58449974Y-19956126D01*
X58449975Y-19956129D01*
X58507187Y-20144730D01*
X58507188Y-20144732D01*
X58555591Y-20235286D01*
X58600090Y-20318538D01*
X58600092Y-20318540D01*
X58600093Y-20318542D01*
X58725112Y-20470878D01*
X58725121Y-20470887D01*
X58846993Y-20570904D01*
X58877462Y-20595910D01*
X58972437Y-20646675D01*
X58995769Y-20663979D01*
X68083504Y-29751714D01*
X68111281Y-29806231D01*
X68112500Y-29821718D01*
X68112500Y-39101638D01*
X68102120Y-39145766D01*
X68032418Y-39285750D01*
X67976603Y-39481917D01*
X67957785Y-39685000D01*
X67976603Y-39888083D01*
X68032418Y-40084250D01*
X68123327Y-40266821D01*
X68246236Y-40429579D01*
X68396959Y-40566981D01*
X68570363Y-40674348D01*
X68760544Y-40748024D01*
X68961024Y-40785500D01*
X69164976Y-40785500D01*
X69365456Y-40748024D01*
X69555637Y-40674348D01*
X69729041Y-40566981D01*
X69879764Y-40429579D01*
X70002673Y-40266821D01*
X70093582Y-40084250D01*
X70149397Y-39888083D01*
X70168215Y-39685000D01*
X70149397Y-39481917D01*
X70093582Y-39285750D01*
X70023879Y-39145766D01*
X70013500Y-39101638D01*
X70013500Y-29293385D01*
X70013499Y-29293381D01*
X70006870Y-29260053D01*
X69976973Y-29109749D01*
X69918836Y-28969394D01*
X69913340Y-28956126D01*
X69905323Y-28936770D01*
X69801302Y-28781092D01*
X69780206Y-28759996D01*
X85042659Y-28759996D01*
X85042659Y-28760003D01*
X85061974Y-28956126D01*
X85061975Y-28956129D01*
X85061976Y-28956132D01*
X85108575Y-29109749D01*
X85119187Y-29144730D01*
X85119188Y-29144732D01*
X85180829Y-29260053D01*
X85212090Y-29318538D01*
X85212092Y-29318540D01*
X85212093Y-29318542D01*
X85337112Y-29470878D01*
X85337121Y-29470887D01*
X85489457Y-29595906D01*
X85489462Y-29595910D01*
X85663273Y-29688814D01*
X85851868Y-29746024D01*
X85851870Y-29746024D01*
X85851873Y-29746025D01*
X86047997Y-29765341D01*
X86048000Y-29765341D01*
X86048003Y-29765341D01*
X86244126Y-29746025D01*
X86244127Y-29746024D01*
X86244132Y-29746024D01*
X86432727Y-29688814D01*
X86606538Y-29595910D01*
X86758883Y-29470883D01*
X86883910Y-29318538D01*
X86934675Y-29223561D01*
X86951976Y-29200232D01*
X94912714Y-21239496D01*
X94967231Y-21211719D01*
X94982718Y-21210500D01*
X96534282Y-21210500D01*
X96592473Y-21229407D01*
X96628437Y-21278907D01*
X96628437Y-21340093D01*
X96604286Y-21379504D01*
X94809701Y-23174088D01*
X94809698Y-23174092D01*
X94705676Y-23329770D01*
X94663705Y-23431099D01*
X94634027Y-23502747D01*
X94634027Y-23502749D01*
X94597500Y-23686381D01*
X94597500Y-31432076D01*
X94593237Y-31460814D01*
X94561975Y-31563867D01*
X94561974Y-31563873D01*
X94542659Y-31759996D01*
X94542659Y-31760003D01*
X94561974Y-31956126D01*
X94561975Y-31956129D01*
X94619187Y-32144730D01*
X94619188Y-32144732D01*
X94690218Y-32277618D01*
X94712090Y-32318538D01*
X94712092Y-32318540D01*
X94712093Y-32318542D01*
X94837112Y-32470878D01*
X94837121Y-32470887D01*
X94989457Y-32595906D01*
X94989462Y-32595910D01*
X95163273Y-32688814D01*
X95351868Y-32746024D01*
X95351870Y-32746024D01*
X95351873Y-32746025D01*
X95547997Y-32765341D01*
X95548000Y-32765341D01*
X95548003Y-32765341D01*
X95744126Y-32746025D01*
X95744127Y-32746024D01*
X95744132Y-32746024D01*
X95932727Y-32688814D01*
X96106538Y-32595910D01*
X96258883Y-32470883D01*
X96383910Y-32318538D01*
X96476814Y-32144727D01*
X96534024Y-31956132D01*
X96553341Y-31760000D01*
X96544121Y-31666384D01*
X96534025Y-31563873D01*
X96534024Y-31563867D01*
X96502763Y-31460814D01*
X96498500Y-31432076D01*
X96498500Y-24214718D01*
X96517407Y-24156527D01*
X96527496Y-24144714D01*
X97846929Y-22825281D01*
X99290302Y-21381908D01*
X99375435Y-21254498D01*
X99423485Y-21216619D01*
X99457750Y-21210500D01*
X101748500Y-21210500D01*
X101806691Y-21229407D01*
X101842655Y-21278907D01*
X101847500Y-21309500D01*
X101847500Y-22279746D01*
X101847501Y-22279758D01*
X101859132Y-22338227D01*
X101859133Y-22338231D01*
X101903448Y-22404552D01*
X101969769Y-22448867D01*
X102014231Y-22457711D01*
X102028241Y-22460498D01*
X102028246Y-22460498D01*
X102028252Y-22460500D01*
X102028253Y-22460500D01*
X106067747Y-22460500D01*
X106067748Y-22460500D01*
X106126231Y-22448867D01*
X106192552Y-22404552D01*
X106236867Y-22338231D01*
X106248500Y-22279748D01*
X106248500Y-18240252D01*
X106236867Y-18181769D01*
X106192552Y-18115448D01*
X106192548Y-18115445D01*
X106126233Y-18071134D01*
X106126231Y-18071133D01*
X106126228Y-18071132D01*
X106126227Y-18071132D01*
X106067758Y-18059501D01*
X106067748Y-18059500D01*
X102028252Y-18059500D01*
X102028251Y-18059500D01*
X102028241Y-18059501D01*
X101969772Y-18071132D01*
X101969766Y-18071134D01*
X101903451Y-18115445D01*
X101903445Y-18115451D01*
X101859134Y-18181766D01*
X101859132Y-18181772D01*
X101847501Y-18240241D01*
X101847500Y-18240253D01*
X101847500Y-19210500D01*
X101828593Y-19268691D01*
X101779093Y-19304655D01*
X101748500Y-19309500D01*
X88384043Y-19309500D01*
X88325852Y-19290593D01*
X88305039Y-19270161D01*
X88293477Y-19254851D01*
X88266981Y-19219764D01*
X88102562Y-19069876D01*
X87913401Y-18952753D01*
X87705940Y-18872382D01*
X87705939Y-18872381D01*
X87705937Y-18872381D01*
X87487243Y-18831500D01*
X87264757Y-18831500D01*
X87046062Y-18872381D01*
X86969797Y-18901926D01*
X86838599Y-18952753D01*
X86649438Y-19069876D01*
X86485019Y-19219764D01*
X86448071Y-19268691D01*
X86350943Y-19397309D01*
X86350938Y-19397318D01*
X86268003Y-19563873D01*
X86251771Y-19596472D01*
X86190885Y-19810464D01*
X86170357Y-20032000D01*
X86190885Y-20253536D01*
X86251771Y-20467528D01*
X86350942Y-20666689D01*
X86485019Y-20844236D01*
X86649438Y-20994124D01*
X86838599Y-21111247D01*
X87046060Y-21191618D01*
X87264757Y-21232500D01*
X87487243Y-21232500D01*
X87595912Y-21212186D01*
X87614103Y-21210500D01*
X87697617Y-21210500D01*
X92014282Y-21210500D01*
X92072473Y-21229407D01*
X92108437Y-21278907D01*
X92108437Y-21340093D01*
X92084286Y-21379504D01*
X85607769Y-27856019D01*
X85584434Y-27873325D01*
X85489462Y-27924090D01*
X85489460Y-27924091D01*
X85489459Y-27924092D01*
X85489457Y-27924093D01*
X85337121Y-28049112D01*
X85337112Y-28049121D01*
X85212093Y-28201457D01*
X85212087Y-28201467D01*
X85119188Y-28375267D01*
X85119187Y-28375269D01*
X85061975Y-28563870D01*
X85061974Y-28563873D01*
X85042659Y-28759996D01*
X69780206Y-28759996D01*
X60780206Y-19759996D01*
X68590659Y-19759996D01*
X68590659Y-19760003D01*
X68609974Y-19956126D01*
X68609975Y-19956129D01*
X68667187Y-20144730D01*
X68667188Y-20144732D01*
X68715591Y-20235286D01*
X68760090Y-20318538D01*
X68760092Y-20318540D01*
X68760093Y-20318542D01*
X68885112Y-20470878D01*
X68885121Y-20470887D01*
X69006993Y-20570904D01*
X69037462Y-20595910D01*
X69132437Y-20646675D01*
X69155769Y-20663979D01*
X69262091Y-20770301D01*
X69417769Y-20874323D01*
X69417770Y-20874323D01*
X69417771Y-20874324D01*
X69424838Y-20877251D01*
X69590750Y-20945973D01*
X69774383Y-20982500D01*
X69774384Y-20982500D01*
X69961616Y-20982500D01*
X69961617Y-20982500D01*
X70145250Y-20945973D01*
X70318230Y-20874323D01*
X70473908Y-20770301D01*
X70504713Y-20739496D01*
X70559230Y-20711719D01*
X70574717Y-20710500D01*
X73634730Y-20710500D01*
X73692921Y-20729407D01*
X73713733Y-20749839D01*
X73760628Y-20811937D01*
X73785019Y-20844236D01*
X73949438Y-20994124D01*
X74138599Y-21111247D01*
X74346060Y-21191618D01*
X74564757Y-21232500D01*
X74787243Y-21232500D01*
X75005940Y-21191618D01*
X75213401Y-21111247D01*
X75402562Y-20994124D01*
X75566981Y-20844236D01*
X75701058Y-20666689D01*
X75800229Y-20467528D01*
X75861115Y-20253536D01*
X75881643Y-20032000D01*
X75861115Y-19810464D01*
X75800229Y-19596472D01*
X75701058Y-19397311D01*
X75566981Y-19219764D01*
X75402562Y-19069876D01*
X75213401Y-18952753D01*
X75005940Y-18872382D01*
X75005939Y-18872381D01*
X75005937Y-18872381D01*
X74787243Y-18831500D01*
X74617970Y-18831500D01*
X74598650Y-18829596D01*
X74589434Y-18827762D01*
X74589434Y-18827763D01*
X74497619Y-18809500D01*
X74497617Y-18809500D01*
X74497616Y-18809500D01*
X69923923Y-18809500D01*
X69895185Y-18805237D01*
X69792132Y-18773976D01*
X69792129Y-18773975D01*
X69792126Y-18773974D01*
X69596003Y-18754659D01*
X69595997Y-18754659D01*
X69399873Y-18773974D01*
X69399870Y-18773975D01*
X69211269Y-18831187D01*
X69211267Y-18831188D01*
X69037467Y-18924087D01*
X69037457Y-18924093D01*
X68885121Y-19049112D01*
X68885112Y-19049121D01*
X68760093Y-19201457D01*
X68760087Y-19201467D01*
X68667188Y-19375267D01*
X68667187Y-19375269D01*
X68609975Y-19563870D01*
X68609974Y-19563873D01*
X68590659Y-19759996D01*
X60780206Y-19759996D01*
X60339979Y-19319769D01*
X60322675Y-19296437D01*
X60271910Y-19201462D01*
X60163920Y-19069876D01*
X60146887Y-19049121D01*
X60146878Y-19049112D01*
X59994542Y-18924093D01*
X59994540Y-18924092D01*
X59994538Y-18924090D01*
X59953618Y-18902218D01*
X59820732Y-18831188D01*
X59820730Y-18831187D01*
X59815485Y-18829596D01*
X59632132Y-18773976D01*
X59632129Y-18773975D01*
X59632126Y-18773974D01*
X59436003Y-18754659D01*
X59435997Y-18754659D01*
X59239873Y-18773974D01*
X59239870Y-18773975D01*
X59051269Y-18831187D01*
X59051267Y-18831188D01*
X58877467Y-18924087D01*
X58877457Y-18924093D01*
X58725121Y-19049112D01*
X58725112Y-19049121D01*
X58600093Y-19201457D01*
X58600087Y-19201467D01*
X58507188Y-19375267D01*
X58507187Y-19375269D01*
X58449975Y-19563870D01*
X58449974Y-19563873D01*
X58430659Y-19759996D01*
X52053341Y-19759996D01*
X52034025Y-19563873D01*
X52034024Y-19563870D01*
X52034024Y-19563868D01*
X51976814Y-19375273D01*
X51883910Y-19201462D01*
X51775920Y-19069876D01*
X51758887Y-19049121D01*
X51758878Y-19049112D01*
X51606542Y-18924093D01*
X51606540Y-18924092D01*
X51606538Y-18924090D01*
X51565618Y-18902218D01*
X51432732Y-18831188D01*
X51432730Y-18831187D01*
X51427485Y-18829596D01*
X51244132Y-18773976D01*
X51244129Y-18773975D01*
X51244126Y-18773974D01*
X51048003Y-18754659D01*
X51047997Y-18754659D01*
X50851873Y-18773974D01*
X50851870Y-18773975D01*
X50663269Y-18831187D01*
X50663267Y-18831188D01*
X50489467Y-18924087D01*
X50489457Y-18924093D01*
X50337121Y-19049112D01*
X50337112Y-19049121D01*
X50212093Y-19201457D01*
X50212087Y-19201467D01*
X50119188Y-19375267D01*
X50119187Y-19375269D01*
X50061975Y-19563870D01*
X50061974Y-19563873D01*
X50042659Y-19759996D01*
X50042659Y-19760003D01*
X50061974Y-19956126D01*
X50061975Y-19956128D01*
X50061975Y-19956130D01*
X50061976Y-19956132D01*
X50093237Y-20059186D01*
X50097500Y-20087922D01*
X50097500Y-22825281D01*
X50078593Y-22883472D01*
X50068504Y-22895285D01*
X46031021Y-26932767D01*
X45976504Y-26960544D01*
X45969646Y-26961386D01*
X45821315Y-26974363D01*
X45601499Y-27033262D01*
X45395276Y-27129426D01*
X45395262Y-27129434D01*
X45208869Y-27259946D01*
X45208867Y-27259947D01*
X45047947Y-27420867D01*
X45047946Y-27420869D01*
X44917434Y-27607262D01*
X44917426Y-27607276D01*
X44821262Y-27813499D01*
X44762363Y-28033315D01*
X44742532Y-28259996D01*
X37232214Y-28259996D01*
X39425928Y-26066282D01*
X44286302Y-21205908D01*
X44360283Y-21095187D01*
X44390319Y-21050237D01*
X44390325Y-21050225D01*
X44441818Y-20925910D01*
X44441818Y-20925909D01*
X44461973Y-20877251D01*
X44486557Y-20753658D01*
X44498500Y-20693617D01*
X44498500Y-20506383D01*
X44498500Y-20087922D01*
X44502762Y-20059186D01*
X44534024Y-19956132D01*
X44553341Y-19760000D01*
X44553341Y-19759996D01*
X44534025Y-19563873D01*
X44534024Y-19563870D01*
X44534024Y-19563868D01*
X44476814Y-19375273D01*
X44383910Y-19201462D01*
X44275920Y-19069876D01*
X44258887Y-19049121D01*
X44258878Y-19049112D01*
X44106542Y-18924093D01*
X44106540Y-18924092D01*
X44106538Y-18924090D01*
X44065618Y-18902218D01*
X43932732Y-18831188D01*
X43932730Y-18831187D01*
X43927485Y-18829596D01*
X43744132Y-18773976D01*
X43744129Y-18773975D01*
X43744126Y-18773974D01*
X43548003Y-18754659D01*
X43547997Y-18754659D01*
X43351873Y-18773974D01*
X43351870Y-18773975D01*
X43163269Y-18831187D01*
X43163267Y-18831188D01*
X42989467Y-18924087D01*
X42989457Y-18924093D01*
X42837121Y-19049112D01*
X42837112Y-19049121D01*
X42712093Y-19201457D01*
X42712087Y-19201467D01*
X42619188Y-19375267D01*
X42619187Y-19375269D01*
X42561975Y-19563870D01*
X42561974Y-19563873D01*
X42542659Y-19759996D01*
X42542659Y-19760003D01*
X42561974Y-19956126D01*
X42561975Y-19956128D01*
X42561975Y-19956130D01*
X42561976Y-19956132D01*
X42593237Y-20059186D01*
X42597500Y-20087922D01*
X42597500Y-20165282D01*
X42578593Y-20223473D01*
X42568504Y-20235286D01*
X36667504Y-26136286D01*
X36612987Y-26164063D01*
X36552555Y-26154492D01*
X36509290Y-26111227D01*
X36498500Y-26066282D01*
X36498500Y-20087922D01*
X36502762Y-20059186D01*
X36534024Y-19956132D01*
X36553341Y-19760000D01*
X36553341Y-19759996D01*
X36534025Y-19563873D01*
X36534024Y-19563870D01*
X36534024Y-19563868D01*
X36476814Y-19375273D01*
X36383910Y-19201462D01*
X36275920Y-19069876D01*
X36258887Y-19049121D01*
X36258878Y-19049112D01*
X36106542Y-18924093D01*
X36106540Y-18924092D01*
X36106538Y-18924090D01*
X36065618Y-18902218D01*
X35932732Y-18831188D01*
X35932730Y-18831187D01*
X35927485Y-18829596D01*
X35744132Y-18773976D01*
X35744129Y-18773975D01*
X35744126Y-18773974D01*
X35548003Y-18754659D01*
X35547997Y-18754659D01*
X35351873Y-18773974D01*
X35351870Y-18773975D01*
X35163269Y-18831187D01*
X35163267Y-18831188D01*
X34989467Y-18924087D01*
X34989457Y-18924093D01*
X34837121Y-19049112D01*
X34837112Y-19049121D01*
X34712093Y-19201457D01*
X34712087Y-19201467D01*
X34619188Y-19375267D01*
X34619187Y-19375269D01*
X34561975Y-19563870D01*
X34561974Y-19563873D01*
X34542659Y-19759996D01*
X29053341Y-19759996D01*
X29034025Y-19563873D01*
X29034024Y-19563870D01*
X29034024Y-19563868D01*
X28976814Y-19375273D01*
X28883910Y-19201462D01*
X28775920Y-19069876D01*
X28758887Y-19049121D01*
X28758878Y-19049112D01*
X28606542Y-18924093D01*
X28606540Y-18924092D01*
X28606538Y-18924090D01*
X28565618Y-18902218D01*
X28432732Y-18831188D01*
X28432730Y-18831187D01*
X28427485Y-18829596D01*
X28244132Y-18773976D01*
X28244129Y-18773975D01*
X28244126Y-18773974D01*
X28048003Y-18754659D01*
X28047997Y-18754659D01*
X27851873Y-18773974D01*
X27851870Y-18773975D01*
X27663269Y-18831187D01*
X27663267Y-18831188D01*
X27489467Y-18924087D01*
X27489457Y-18924093D01*
X27337121Y-19049112D01*
X27337112Y-19049121D01*
X27212093Y-19201457D01*
X27212087Y-19201467D01*
X27119188Y-19375267D01*
X27119187Y-19375269D01*
X27061975Y-19563870D01*
X27061974Y-19563873D01*
X27042659Y-19759996D01*
X22248500Y-19759996D01*
X22248500Y-17740252D01*
X22236867Y-17681769D01*
X22192552Y-17615448D01*
X22192548Y-17615445D01*
X22126233Y-17571134D01*
X22126231Y-17571133D01*
X22126228Y-17571132D01*
X22126227Y-17571132D01*
X22067758Y-17559501D01*
X22067748Y-17559500D01*
X18028252Y-17559500D01*
X18028251Y-17559500D01*
X18028241Y-17559501D01*
X17969772Y-17571132D01*
X17969766Y-17571134D01*
X17903451Y-17615445D01*
X17903445Y-17615451D01*
X17859134Y-17681766D01*
X17859132Y-17681772D01*
X17847501Y-17740241D01*
X17847500Y-17740253D01*
X14624000Y-17740253D01*
X14624000Y-15051000D01*
X14642907Y-14992809D01*
X14692407Y-14956845D01*
X14723000Y-14952000D01*
X108601000Y-14952000D01*
X108659191Y-14970907D01*
G37*
%TD.AperFunction*%
M02*
