M48
; DRILL file {KiCad 8.0.3} date 2024-10-19T22:41:10-0500
; FORMAT={-:-/ absolute / inch / decimal}
; #@! TF.CreationDate,2024-10-19T22:41:10-05:00
; #@! TF.GenerationSoftware,Kicad,Pcbnew,8.0.3
; #@! TF.FileFunction,Plated,1,2,PTH
FMAT,2
INCH
; #@! TA.AperFunction,Plated,PTH,ComponentDrill
T1C0.0315
; #@! TA.AperFunction,Plated,PTH,ComponentDrill
T2C0.0394
; #@! TA.AperFunction,Plated,PTH,ComponentDrill
T3C0.0433
%
G90
G05
T1
X0.8043Y-1.0929
X1.1043Y-0.778
X1.1043Y-1.0929
X1.3995Y-0.778
X1.7145Y-0.778
X1.9507Y-1.4472
X1.9507Y-1.6441
X2.0098Y-0.778
X2.34Y-0.778
X2.74Y-0.778
X3.3877Y-1.1323
X3.3877Y-1.7228
X3.7617Y-1.2504
X3.7617Y-1.6441
T2
X2.619Y-1.5624
X2.719Y-1.5624
X2.819Y-1.5624
X2.94Y-0.7887
X3.44Y-0.7887
T3
X1.4129Y-1.1126
X1.4192Y-1.3425
X1.4192Y-1.7425
X1.8129Y-1.1126
M30
