%TF.GenerationSoftware,KiCad,Pcbnew,8.0.3*%
%TF.CreationDate,2024-10-19T22:40:53-05:00*%
%TF.ProjectId,G1 RGB Mod Board,47312052-4742-4204-9d6f-6420426f6172,rev?*%
%TF.SameCoordinates,Original*%
%TF.FileFunction,Legend,Top*%
%TF.FilePolarity,Positive*%
%FSLAX46Y46*%
G04 Gerber Fmt 4.6, Leading zero omitted, Abs format (unit mm)*
G04 Created by KiCad (PCBNEW 8.0.3) date 2024-10-19 22:40:53*
%MOMM*%
%LPD*%
G01*
G04 APERTURE LIST*
%ADD10C,0.150000*%
%ADD11C,0.120000*%
G04 APERTURE END LIST*
D10*
X55527533Y-45685904D02*
X55527533Y-44162095D01*
X56289438Y-44923999D02*
X54765628Y-44923999D01*
X40229905Y-26244819D02*
X40229905Y-25244819D01*
X40229905Y-25244819D02*
X40468000Y-25244819D01*
X40468000Y-25244819D02*
X40610857Y-25292438D01*
X40610857Y-25292438D02*
X40706095Y-25387676D01*
X40706095Y-25387676D02*
X40753714Y-25482914D01*
X40753714Y-25482914D02*
X40801333Y-25673390D01*
X40801333Y-25673390D02*
X40801333Y-25816247D01*
X40801333Y-25816247D02*
X40753714Y-26006723D01*
X40753714Y-26006723D02*
X40706095Y-26101961D01*
X40706095Y-26101961D02*
X40610857Y-26197200D01*
X40610857Y-26197200D02*
X40468000Y-26244819D01*
X40468000Y-26244819D02*
X40229905Y-26244819D01*
X41753714Y-26244819D02*
X41182286Y-26244819D01*
X41468000Y-26244819D02*
X41468000Y-25244819D01*
X41468000Y-25244819D02*
X41372762Y-25387676D01*
X41372762Y-25387676D02*
X41277524Y-25482914D01*
X41277524Y-25482914D02*
X41182286Y-25530533D01*
X35626095Y-26614819D02*
X35626095Y-25614819D01*
X36197523Y-26614819D02*
X35768952Y-26043390D01*
X36197523Y-25614819D02*
X35626095Y-26186247D01*
X34032819Y-39918094D02*
X33032819Y-39918094D01*
X33032819Y-39918094D02*
X33032819Y-39679999D01*
X33032819Y-39679999D02*
X33080438Y-39537142D01*
X33080438Y-39537142D02*
X33175676Y-39441904D01*
X33175676Y-39441904D02*
X33270914Y-39394285D01*
X33270914Y-39394285D02*
X33461390Y-39346666D01*
X33461390Y-39346666D02*
X33604247Y-39346666D01*
X33604247Y-39346666D02*
X33794723Y-39394285D01*
X33794723Y-39394285D02*
X33889961Y-39441904D01*
X33889961Y-39441904D02*
X33985200Y-39537142D01*
X33985200Y-39537142D02*
X34032819Y-39679999D01*
X34032819Y-39679999D02*
X34032819Y-39918094D01*
X33128057Y-38965713D02*
X33080438Y-38918094D01*
X33080438Y-38918094D02*
X33032819Y-38822856D01*
X33032819Y-38822856D02*
X33032819Y-38584761D01*
X33032819Y-38584761D02*
X33080438Y-38489523D01*
X33080438Y-38489523D02*
X33128057Y-38441904D01*
X33128057Y-38441904D02*
X33223295Y-38394285D01*
X33223295Y-38394285D02*
X33318533Y-38394285D01*
X33318533Y-38394285D02*
X33461390Y-38441904D01*
X33461390Y-38441904D02*
X34032819Y-39013332D01*
X34032819Y-39013332D02*
X34032819Y-38394285D01*
X100687619Y-44870819D02*
X100687619Y-43870819D01*
X100687619Y-43870819D02*
X101259047Y-44870819D01*
X101259047Y-44870819D02*
X101259047Y-43870819D01*
X102116190Y-44823200D02*
X102020952Y-44870819D01*
X102020952Y-44870819D02*
X101830476Y-44870819D01*
X101830476Y-44870819D02*
X101735238Y-44823200D01*
X101735238Y-44823200D02*
X101687619Y-44727961D01*
X101687619Y-44727961D02*
X101687619Y-44347009D01*
X101687619Y-44347009D02*
X101735238Y-44251771D01*
X101735238Y-44251771D02*
X101830476Y-44204152D01*
X101830476Y-44204152D02*
X102020952Y-44204152D01*
X102020952Y-44204152D02*
X102116190Y-44251771D01*
X102116190Y-44251771D02*
X102163809Y-44347009D01*
X102163809Y-44347009D02*
X102163809Y-44442247D01*
X102163809Y-44442247D02*
X101687619Y-44537485D01*
X103020952Y-44823200D02*
X102925714Y-44870819D01*
X102925714Y-44870819D02*
X102735238Y-44870819D01*
X102735238Y-44870819D02*
X102640000Y-44823200D01*
X102640000Y-44823200D02*
X102592381Y-44775580D01*
X102592381Y-44775580D02*
X102544762Y-44680342D01*
X102544762Y-44680342D02*
X102544762Y-44394628D01*
X102544762Y-44394628D02*
X102592381Y-44299390D01*
X102592381Y-44299390D02*
X102640000Y-44251771D01*
X102640000Y-44251771D02*
X102735238Y-44204152D01*
X102735238Y-44204152D02*
X102925714Y-44204152D01*
X102925714Y-44204152D02*
X103020952Y-44251771D01*
X103449524Y-44870819D02*
X103449524Y-43870819D01*
X103544762Y-44489866D02*
X103830476Y-44870819D01*
X103830476Y-44204152D02*
X103449524Y-44585104D01*
X105544762Y-43918438D02*
X105449524Y-43870819D01*
X105449524Y-43870819D02*
X105306667Y-43870819D01*
X105306667Y-43870819D02*
X105163810Y-43918438D01*
X105163810Y-43918438D02*
X105068572Y-44013676D01*
X105068572Y-44013676D02*
X105020953Y-44108914D01*
X105020953Y-44108914D02*
X104973334Y-44299390D01*
X104973334Y-44299390D02*
X104973334Y-44442247D01*
X104973334Y-44442247D02*
X105020953Y-44632723D01*
X105020953Y-44632723D02*
X105068572Y-44727961D01*
X105068572Y-44727961D02*
X105163810Y-44823200D01*
X105163810Y-44823200D02*
X105306667Y-44870819D01*
X105306667Y-44870819D02*
X105401905Y-44870819D01*
X105401905Y-44870819D02*
X105544762Y-44823200D01*
X105544762Y-44823200D02*
X105592381Y-44775580D01*
X105592381Y-44775580D02*
X105592381Y-44442247D01*
X105592381Y-44442247D02*
X105401905Y-44442247D01*
X106020953Y-44870819D02*
X106020953Y-43870819D01*
X106020953Y-43870819D02*
X106592381Y-44870819D01*
X106592381Y-44870819D02*
X106592381Y-43870819D01*
X107068572Y-44870819D02*
X107068572Y-43870819D01*
X107068572Y-43870819D02*
X107306667Y-43870819D01*
X107306667Y-43870819D02*
X107449524Y-43918438D01*
X107449524Y-43918438D02*
X107544762Y-44013676D01*
X107544762Y-44013676D02*
X107592381Y-44108914D01*
X107592381Y-44108914D02*
X107640000Y-44299390D01*
X107640000Y-44299390D02*
X107640000Y-44442247D01*
X107640000Y-44442247D02*
X107592381Y-44632723D01*
X107592381Y-44632723D02*
X107544762Y-44727961D01*
X107544762Y-44727961D02*
X107449524Y-44823200D01*
X107449524Y-44823200D02*
X107306667Y-44870819D01*
X107306667Y-44870819D02*
X107068572Y-44870819D01*
X103925714Y-15978438D02*
X103830476Y-15930819D01*
X103830476Y-15930819D02*
X103687619Y-15930819D01*
X103687619Y-15930819D02*
X103544762Y-15978438D01*
X103544762Y-15978438D02*
X103449524Y-16073676D01*
X103449524Y-16073676D02*
X103401905Y-16168914D01*
X103401905Y-16168914D02*
X103354286Y-16359390D01*
X103354286Y-16359390D02*
X103354286Y-16502247D01*
X103354286Y-16502247D02*
X103401905Y-16692723D01*
X103401905Y-16692723D02*
X103449524Y-16787961D01*
X103449524Y-16787961D02*
X103544762Y-16883200D01*
X103544762Y-16883200D02*
X103687619Y-16930819D01*
X103687619Y-16930819D02*
X103782857Y-16930819D01*
X103782857Y-16930819D02*
X103925714Y-16883200D01*
X103925714Y-16883200D02*
X103973333Y-16835580D01*
X103973333Y-16835580D02*
X103973333Y-16502247D01*
X103973333Y-16502247D02*
X103782857Y-16502247D01*
X104925714Y-16930819D02*
X104354286Y-16930819D01*
X104640000Y-16930819D02*
X104640000Y-15930819D01*
X104640000Y-15930819D02*
X104544762Y-16073676D01*
X104544762Y-16073676D02*
X104449524Y-16168914D01*
X104449524Y-16168914D02*
X104354286Y-16216533D01*
X16367618Y-44267580D02*
X16319999Y-44315200D01*
X16319999Y-44315200D02*
X16177142Y-44362819D01*
X16177142Y-44362819D02*
X16081904Y-44362819D01*
X16081904Y-44362819D02*
X15939047Y-44315200D01*
X15939047Y-44315200D02*
X15843809Y-44219961D01*
X15843809Y-44219961D02*
X15796190Y-44124723D01*
X15796190Y-44124723D02*
X15748571Y-43934247D01*
X15748571Y-43934247D02*
X15748571Y-43791390D01*
X15748571Y-43791390D02*
X15796190Y-43600914D01*
X15796190Y-43600914D02*
X15843809Y-43505676D01*
X15843809Y-43505676D02*
X15939047Y-43410438D01*
X15939047Y-43410438D02*
X16081904Y-43362819D01*
X16081904Y-43362819D02*
X16177142Y-43362819D01*
X16177142Y-43362819D02*
X16319999Y-43410438D01*
X16319999Y-43410438D02*
X16367618Y-43458057D01*
X16796190Y-44362819D02*
X16796190Y-43362819D01*
X17224761Y-44362819D02*
X17224761Y-43839009D01*
X17224761Y-43839009D02*
X17177142Y-43743771D01*
X17177142Y-43743771D02*
X17081904Y-43696152D01*
X17081904Y-43696152D02*
X16939047Y-43696152D01*
X16939047Y-43696152D02*
X16843809Y-43743771D01*
X16843809Y-43743771D02*
X16796190Y-43791390D01*
X18129523Y-44362819D02*
X18129523Y-43839009D01*
X18129523Y-43839009D02*
X18081904Y-43743771D01*
X18081904Y-43743771D02*
X17986666Y-43696152D01*
X17986666Y-43696152D02*
X17796190Y-43696152D01*
X17796190Y-43696152D02*
X17700952Y-43743771D01*
X18129523Y-44315200D02*
X18034285Y-44362819D01*
X18034285Y-44362819D02*
X17796190Y-44362819D01*
X17796190Y-44362819D02*
X17700952Y-44315200D01*
X17700952Y-44315200D02*
X17653333Y-44219961D01*
X17653333Y-44219961D02*
X17653333Y-44124723D01*
X17653333Y-44124723D02*
X17700952Y-44029485D01*
X17700952Y-44029485D02*
X17796190Y-43981866D01*
X17796190Y-43981866D02*
X18034285Y-43981866D01*
X18034285Y-43981866D02*
X18129523Y-43934247D01*
X18558095Y-44315200D02*
X18653333Y-44362819D01*
X18653333Y-44362819D02*
X18843809Y-44362819D01*
X18843809Y-44362819D02*
X18939047Y-44315200D01*
X18939047Y-44315200D02*
X18986666Y-44219961D01*
X18986666Y-44219961D02*
X18986666Y-44172342D01*
X18986666Y-44172342D02*
X18939047Y-44077104D01*
X18939047Y-44077104D02*
X18843809Y-44029485D01*
X18843809Y-44029485D02*
X18700952Y-44029485D01*
X18700952Y-44029485D02*
X18605714Y-43981866D01*
X18605714Y-43981866D02*
X18558095Y-43886628D01*
X18558095Y-43886628D02*
X18558095Y-43839009D01*
X18558095Y-43839009D02*
X18605714Y-43743771D01*
X18605714Y-43743771D02*
X18700952Y-43696152D01*
X18700952Y-43696152D02*
X18843809Y-43696152D01*
X18843809Y-43696152D02*
X18939047Y-43743771D01*
X19367619Y-44315200D02*
X19462857Y-44362819D01*
X19462857Y-44362819D02*
X19653333Y-44362819D01*
X19653333Y-44362819D02*
X19748571Y-44315200D01*
X19748571Y-44315200D02*
X19796190Y-44219961D01*
X19796190Y-44219961D02*
X19796190Y-44172342D01*
X19796190Y-44172342D02*
X19748571Y-44077104D01*
X19748571Y-44077104D02*
X19653333Y-44029485D01*
X19653333Y-44029485D02*
X19510476Y-44029485D01*
X19510476Y-44029485D02*
X19415238Y-43981866D01*
X19415238Y-43981866D02*
X19367619Y-43886628D01*
X19367619Y-43886628D02*
X19367619Y-43839009D01*
X19367619Y-43839009D02*
X19415238Y-43743771D01*
X19415238Y-43743771D02*
X19510476Y-43696152D01*
X19510476Y-43696152D02*
X19653333Y-43696152D01*
X19653333Y-43696152D02*
X19748571Y-43743771D01*
X20224762Y-44362819D02*
X20224762Y-43696152D01*
X20224762Y-43362819D02*
X20177143Y-43410438D01*
X20177143Y-43410438D02*
X20224762Y-43458057D01*
X20224762Y-43458057D02*
X20272381Y-43410438D01*
X20272381Y-43410438D02*
X20224762Y-43362819D01*
X20224762Y-43362819D02*
X20224762Y-43458057D01*
X20653333Y-44315200D02*
X20748571Y-44362819D01*
X20748571Y-44362819D02*
X20939047Y-44362819D01*
X20939047Y-44362819D02*
X21034285Y-44315200D01*
X21034285Y-44315200D02*
X21081904Y-44219961D01*
X21081904Y-44219961D02*
X21081904Y-44172342D01*
X21081904Y-44172342D02*
X21034285Y-44077104D01*
X21034285Y-44077104D02*
X20939047Y-44029485D01*
X20939047Y-44029485D02*
X20796190Y-44029485D01*
X20796190Y-44029485D02*
X20700952Y-43981866D01*
X20700952Y-43981866D02*
X20653333Y-43886628D01*
X20653333Y-43886628D02*
X20653333Y-43839009D01*
X20653333Y-43839009D02*
X20700952Y-43743771D01*
X20700952Y-43743771D02*
X20796190Y-43696152D01*
X20796190Y-43696152D02*
X20939047Y-43696152D01*
X20939047Y-43696152D02*
X21034285Y-43743771D01*
X22796190Y-43410438D02*
X22700952Y-43362819D01*
X22700952Y-43362819D02*
X22558095Y-43362819D01*
X22558095Y-43362819D02*
X22415238Y-43410438D01*
X22415238Y-43410438D02*
X22320000Y-43505676D01*
X22320000Y-43505676D02*
X22272381Y-43600914D01*
X22272381Y-43600914D02*
X22224762Y-43791390D01*
X22224762Y-43791390D02*
X22224762Y-43934247D01*
X22224762Y-43934247D02*
X22272381Y-44124723D01*
X22272381Y-44124723D02*
X22320000Y-44219961D01*
X22320000Y-44219961D02*
X22415238Y-44315200D01*
X22415238Y-44315200D02*
X22558095Y-44362819D01*
X22558095Y-44362819D02*
X22653333Y-44362819D01*
X22653333Y-44362819D02*
X22796190Y-44315200D01*
X22796190Y-44315200D02*
X22843809Y-44267580D01*
X22843809Y-44267580D02*
X22843809Y-43934247D01*
X22843809Y-43934247D02*
X22653333Y-43934247D01*
X23272381Y-44362819D02*
X23272381Y-43362819D01*
X23272381Y-43362819D02*
X23843809Y-44362819D01*
X23843809Y-44362819D02*
X23843809Y-43362819D01*
X24320000Y-44362819D02*
X24320000Y-43362819D01*
X24320000Y-43362819D02*
X24558095Y-43362819D01*
X24558095Y-43362819D02*
X24700952Y-43410438D01*
X24700952Y-43410438D02*
X24796190Y-43505676D01*
X24796190Y-43505676D02*
X24843809Y-43600914D01*
X24843809Y-43600914D02*
X24891428Y-43791390D01*
X24891428Y-43791390D02*
X24891428Y-43934247D01*
X24891428Y-43934247D02*
X24843809Y-44124723D01*
X24843809Y-44124723D02*
X24796190Y-44219961D01*
X24796190Y-44219961D02*
X24700952Y-44315200D01*
X24700952Y-44315200D02*
X24558095Y-44362819D01*
X24558095Y-44362819D02*
X24320000Y-44362819D01*
X15915428Y-15899009D02*
X15582095Y-15899009D01*
X15582095Y-16422819D02*
X15582095Y-15422819D01*
X15582095Y-15422819D02*
X16058285Y-15422819D01*
X16772571Y-15899009D02*
X16915428Y-15946628D01*
X16915428Y-15946628D02*
X16963047Y-15994247D01*
X16963047Y-15994247D02*
X17010666Y-16089485D01*
X17010666Y-16089485D02*
X17010666Y-16232342D01*
X17010666Y-16232342D02*
X16963047Y-16327580D01*
X16963047Y-16327580D02*
X16915428Y-16375200D01*
X16915428Y-16375200D02*
X16820190Y-16422819D01*
X16820190Y-16422819D02*
X16439238Y-16422819D01*
X16439238Y-16422819D02*
X16439238Y-15422819D01*
X16439238Y-15422819D02*
X16772571Y-15422819D01*
X16772571Y-15422819D02*
X16867809Y-15470438D01*
X16867809Y-15470438D02*
X16915428Y-15518057D01*
X16915428Y-15518057D02*
X16963047Y-15613295D01*
X16963047Y-15613295D02*
X16963047Y-15708533D01*
X16963047Y-15708533D02*
X16915428Y-15803771D01*
X16915428Y-15803771D02*
X16867809Y-15851390D01*
X16867809Y-15851390D02*
X16772571Y-15899009D01*
X16772571Y-15899009D02*
X16439238Y-15899009D01*
X17296381Y-15422819D02*
X17867809Y-15422819D01*
X17582095Y-16422819D02*
X17582095Y-15422819D01*
X19486857Y-16422819D02*
X18915429Y-16422819D01*
X19201143Y-16422819D02*
X19201143Y-15422819D01*
X19201143Y-15422819D02*
X19105905Y-15565676D01*
X19105905Y-15565676D02*
X19010667Y-15660914D01*
X19010667Y-15660914D02*
X18915429Y-15708533D01*
X20391619Y-15422819D02*
X19915429Y-15422819D01*
X19915429Y-15422819D02*
X19867810Y-15899009D01*
X19867810Y-15899009D02*
X19915429Y-15851390D01*
X19915429Y-15851390D02*
X20010667Y-15803771D01*
X20010667Y-15803771D02*
X20248762Y-15803771D01*
X20248762Y-15803771D02*
X20344000Y-15851390D01*
X20344000Y-15851390D02*
X20391619Y-15899009D01*
X20391619Y-15899009D02*
X20439238Y-15994247D01*
X20439238Y-15994247D02*
X20439238Y-16232342D01*
X20439238Y-16232342D02*
X20391619Y-16327580D01*
X20391619Y-16327580D02*
X20344000Y-16375200D01*
X20344000Y-16375200D02*
X20248762Y-16422819D01*
X20248762Y-16422819D02*
X20010667Y-16422819D01*
X20010667Y-16422819D02*
X19915429Y-16375200D01*
X19915429Y-16375200D02*
X19867810Y-16327580D01*
X21058286Y-15422819D02*
X21153524Y-15422819D01*
X21153524Y-15422819D02*
X21248762Y-15470438D01*
X21248762Y-15470438D02*
X21296381Y-15518057D01*
X21296381Y-15518057D02*
X21344000Y-15613295D01*
X21344000Y-15613295D02*
X21391619Y-15803771D01*
X21391619Y-15803771D02*
X21391619Y-16041866D01*
X21391619Y-16041866D02*
X21344000Y-16232342D01*
X21344000Y-16232342D02*
X21296381Y-16327580D01*
X21296381Y-16327580D02*
X21248762Y-16375200D01*
X21248762Y-16375200D02*
X21153524Y-16422819D01*
X21153524Y-16422819D02*
X21058286Y-16422819D01*
X21058286Y-16422819D02*
X20963048Y-16375200D01*
X20963048Y-16375200D02*
X20915429Y-16327580D01*
X20915429Y-16327580D02*
X20867810Y-16232342D01*
X20867810Y-16232342D02*
X20820191Y-16041866D01*
X20820191Y-16041866D02*
X20820191Y-15803771D01*
X20820191Y-15803771D02*
X20867810Y-15613295D01*
X20867810Y-15613295D02*
X20915429Y-15518057D01*
X20915429Y-15518057D02*
X20963048Y-15470438D01*
X20963048Y-15470438D02*
X21058286Y-15422819D01*
X21820191Y-16041866D02*
X22582096Y-16041866D01*
X23010667Y-15518057D02*
X23058286Y-15470438D01*
X23058286Y-15470438D02*
X23153524Y-15422819D01*
X23153524Y-15422819D02*
X23391619Y-15422819D01*
X23391619Y-15422819D02*
X23486857Y-15470438D01*
X23486857Y-15470438D02*
X23534476Y-15518057D01*
X23534476Y-15518057D02*
X23582095Y-15613295D01*
X23582095Y-15613295D02*
X23582095Y-15708533D01*
X23582095Y-15708533D02*
X23534476Y-15851390D01*
X23534476Y-15851390D02*
X22963048Y-16422819D01*
X22963048Y-16422819D02*
X23582095Y-16422819D01*
X24486857Y-15422819D02*
X24010667Y-15422819D01*
X24010667Y-15422819D02*
X23963048Y-15899009D01*
X23963048Y-15899009D02*
X24010667Y-15851390D01*
X24010667Y-15851390D02*
X24105905Y-15803771D01*
X24105905Y-15803771D02*
X24344000Y-15803771D01*
X24344000Y-15803771D02*
X24439238Y-15851390D01*
X24439238Y-15851390D02*
X24486857Y-15899009D01*
X24486857Y-15899009D02*
X24534476Y-15994247D01*
X24534476Y-15994247D02*
X24534476Y-16232342D01*
X24534476Y-16232342D02*
X24486857Y-16327580D01*
X24486857Y-16327580D02*
X24439238Y-16375200D01*
X24439238Y-16375200D02*
X24344000Y-16422819D01*
X24344000Y-16422819D02*
X24105905Y-16422819D01*
X24105905Y-16422819D02*
X24010667Y-16375200D01*
X24010667Y-16375200D02*
X23963048Y-16327580D01*
X25153524Y-15422819D02*
X25248762Y-15422819D01*
X25248762Y-15422819D02*
X25344000Y-15470438D01*
X25344000Y-15470438D02*
X25391619Y-15518057D01*
X25391619Y-15518057D02*
X25439238Y-15613295D01*
X25439238Y-15613295D02*
X25486857Y-15803771D01*
X25486857Y-15803771D02*
X25486857Y-16041866D01*
X25486857Y-16041866D02*
X25439238Y-16232342D01*
X25439238Y-16232342D02*
X25391619Y-16327580D01*
X25391619Y-16327580D02*
X25344000Y-16375200D01*
X25344000Y-16375200D02*
X25248762Y-16422819D01*
X25248762Y-16422819D02*
X25153524Y-16422819D01*
X25153524Y-16422819D02*
X25058286Y-16375200D01*
X25058286Y-16375200D02*
X25010667Y-16327580D01*
X25010667Y-16327580D02*
X24963048Y-16232342D01*
X24963048Y-16232342D02*
X24915429Y-16041866D01*
X24915429Y-16041866D02*
X24915429Y-15803771D01*
X24915429Y-15803771D02*
X24963048Y-15613295D01*
X24963048Y-15613295D02*
X25010667Y-15518057D01*
X25010667Y-15518057D02*
X25058286Y-15470438D01*
X25058286Y-15470438D02*
X25153524Y-15422819D01*
X25772572Y-15422819D02*
X26105905Y-16422819D01*
X26105905Y-16422819D02*
X26439238Y-15422819D01*
X26772572Y-15756152D02*
X26772572Y-16756152D01*
X26772572Y-15803771D02*
X26867810Y-15756152D01*
X26867810Y-15756152D02*
X27058286Y-15756152D01*
X27058286Y-15756152D02*
X27153524Y-15803771D01*
X27153524Y-15803771D02*
X27201143Y-15851390D01*
X27201143Y-15851390D02*
X27248762Y-15946628D01*
X27248762Y-15946628D02*
X27248762Y-16232342D01*
X27248762Y-16232342D02*
X27201143Y-16327580D01*
X27201143Y-16327580D02*
X27153524Y-16375200D01*
X27153524Y-16375200D02*
X27058286Y-16422819D01*
X27058286Y-16422819D02*
X26867810Y-16422819D01*
X26867810Y-16422819D02*
X26772572Y-16375200D01*
X27677334Y-15756152D02*
X27677334Y-16756152D01*
X27677334Y-15803771D02*
X27772572Y-15756152D01*
X27772572Y-15756152D02*
X27963048Y-15756152D01*
X27963048Y-15756152D02*
X28058286Y-15803771D01*
X28058286Y-15803771D02*
X28105905Y-15851390D01*
X28105905Y-15851390D02*
X28153524Y-15946628D01*
X28153524Y-15946628D02*
X28153524Y-16232342D01*
X28153524Y-16232342D02*
X28105905Y-16327580D01*
X28105905Y-16327580D02*
X28058286Y-16375200D01*
X28058286Y-16375200D02*
X27963048Y-16422819D01*
X27963048Y-16422819D02*
X27772572Y-16422819D01*
X27772572Y-16422819D02*
X27677334Y-16375200D01*
X63420761Y-17844819D02*
X62849333Y-17844819D01*
X63135047Y-17844819D02*
X63135047Y-16844819D01*
X63135047Y-16844819D02*
X63039809Y-16987676D01*
X63039809Y-16987676D02*
X62944571Y-17082914D01*
X62944571Y-17082914D02*
X62849333Y-17130533D01*
X64039809Y-16844819D02*
X64135047Y-16844819D01*
X64135047Y-16844819D02*
X64230285Y-16892438D01*
X64230285Y-16892438D02*
X64277904Y-16940057D01*
X64277904Y-16940057D02*
X64325523Y-17035295D01*
X64325523Y-17035295D02*
X64373142Y-17225771D01*
X64373142Y-17225771D02*
X64373142Y-17463866D01*
X64373142Y-17463866D02*
X64325523Y-17654342D01*
X64325523Y-17654342D02*
X64277904Y-17749580D01*
X64277904Y-17749580D02*
X64230285Y-17797200D01*
X64230285Y-17797200D02*
X64135047Y-17844819D01*
X64135047Y-17844819D02*
X64039809Y-17844819D01*
X64039809Y-17844819D02*
X63944571Y-17797200D01*
X63944571Y-17797200D02*
X63896952Y-17749580D01*
X63896952Y-17749580D02*
X63849333Y-17654342D01*
X63849333Y-17654342D02*
X63801714Y-17463866D01*
X63801714Y-17463866D02*
X63801714Y-17225771D01*
X63801714Y-17225771D02*
X63849333Y-17035295D01*
X63849333Y-17035295D02*
X63896952Y-16940057D01*
X63896952Y-16940057D02*
X63944571Y-16892438D01*
X63944571Y-16892438D02*
X64039809Y-16844819D01*
X64801714Y-17844819D02*
X64801714Y-16844819D01*
X64896952Y-17463866D02*
X65182666Y-17844819D01*
X65182666Y-17178152D02*
X64801714Y-17559104D01*
X66182666Y-17844819D02*
X65849333Y-17368628D01*
X65611238Y-17844819D02*
X65611238Y-16844819D01*
X65611238Y-16844819D02*
X65992190Y-16844819D01*
X65992190Y-16844819D02*
X66087428Y-16892438D01*
X66087428Y-16892438D02*
X66135047Y-16940057D01*
X66135047Y-16940057D02*
X66182666Y-17035295D01*
X66182666Y-17035295D02*
X66182666Y-17178152D01*
X66182666Y-17178152D02*
X66135047Y-17273390D01*
X66135047Y-17273390D02*
X66087428Y-17321009D01*
X66087428Y-17321009D02*
X65992190Y-17368628D01*
X65992190Y-17368628D02*
X65611238Y-17368628D01*
X23071333Y-25844819D02*
X22499905Y-25844819D01*
X22785619Y-25844819D02*
X22785619Y-24844819D01*
X22785619Y-24844819D02*
X22690381Y-24987676D01*
X22690381Y-24987676D02*
X22595143Y-25082914D01*
X22595143Y-25082914D02*
X22499905Y-25130533D01*
X23690381Y-24844819D02*
X23785619Y-24844819D01*
X23785619Y-24844819D02*
X23880857Y-24892438D01*
X23880857Y-24892438D02*
X23928476Y-24940057D01*
X23928476Y-24940057D02*
X23976095Y-25035295D01*
X23976095Y-25035295D02*
X24023714Y-25225771D01*
X24023714Y-25225771D02*
X24023714Y-25463866D01*
X24023714Y-25463866D02*
X23976095Y-25654342D01*
X23976095Y-25654342D02*
X23928476Y-25749580D01*
X23928476Y-25749580D02*
X23880857Y-25797200D01*
X23880857Y-25797200D02*
X23785619Y-25844819D01*
X23785619Y-25844819D02*
X23690381Y-25844819D01*
X23690381Y-25844819D02*
X23595143Y-25797200D01*
X23595143Y-25797200D02*
X23547524Y-25749580D01*
X23547524Y-25749580D02*
X23499905Y-25654342D01*
X23499905Y-25654342D02*
X23452286Y-25463866D01*
X23452286Y-25463866D02*
X23452286Y-25225771D01*
X23452286Y-25225771D02*
X23499905Y-25035295D01*
X23499905Y-25035295D02*
X23547524Y-24940057D01*
X23547524Y-24940057D02*
X23595143Y-24892438D01*
X23595143Y-24892438D02*
X23690381Y-24844819D01*
X24642762Y-24844819D02*
X24738000Y-24844819D01*
X24738000Y-24844819D02*
X24833238Y-24892438D01*
X24833238Y-24892438D02*
X24880857Y-24940057D01*
X24880857Y-24940057D02*
X24928476Y-25035295D01*
X24928476Y-25035295D02*
X24976095Y-25225771D01*
X24976095Y-25225771D02*
X24976095Y-25463866D01*
X24976095Y-25463866D02*
X24928476Y-25654342D01*
X24928476Y-25654342D02*
X24880857Y-25749580D01*
X24880857Y-25749580D02*
X24833238Y-25797200D01*
X24833238Y-25797200D02*
X24738000Y-25844819D01*
X24738000Y-25844819D02*
X24642762Y-25844819D01*
X24642762Y-25844819D02*
X24547524Y-25797200D01*
X24547524Y-25797200D02*
X24499905Y-25749580D01*
X24499905Y-25749580D02*
X24452286Y-25654342D01*
X24452286Y-25654342D02*
X24404667Y-25463866D01*
X24404667Y-25463866D02*
X24404667Y-25225771D01*
X24404667Y-25225771D02*
X24452286Y-25035295D01*
X24452286Y-25035295D02*
X24499905Y-24940057D01*
X24499905Y-24940057D02*
X24547524Y-24892438D01*
X24547524Y-24892438D02*
X24642762Y-24844819D01*
X25976095Y-25844819D02*
X25642762Y-25368628D01*
X25404667Y-25844819D02*
X25404667Y-24844819D01*
X25404667Y-24844819D02*
X25785619Y-24844819D01*
X25785619Y-24844819D02*
X25880857Y-24892438D01*
X25880857Y-24892438D02*
X25928476Y-24940057D01*
X25928476Y-24940057D02*
X25976095Y-25035295D01*
X25976095Y-25035295D02*
X25976095Y-25178152D01*
X25976095Y-25178152D02*
X25928476Y-25273390D01*
X25928476Y-25273390D02*
X25880857Y-25321009D01*
X25880857Y-25321009D02*
X25785619Y-25368628D01*
X25785619Y-25368628D02*
X25404667Y-25368628D01*
X79383142Y-17366819D02*
X78811714Y-17366819D01*
X79097428Y-17366819D02*
X79097428Y-16366819D01*
X79097428Y-16366819D02*
X79002190Y-16509676D01*
X79002190Y-16509676D02*
X78906952Y-16604914D01*
X78906952Y-16604914D02*
X78811714Y-16652533D01*
X80002190Y-16366819D02*
X80097428Y-16366819D01*
X80097428Y-16366819D02*
X80192666Y-16414438D01*
X80192666Y-16414438D02*
X80240285Y-16462057D01*
X80240285Y-16462057D02*
X80287904Y-16557295D01*
X80287904Y-16557295D02*
X80335523Y-16747771D01*
X80335523Y-16747771D02*
X80335523Y-16985866D01*
X80335523Y-16985866D02*
X80287904Y-17176342D01*
X80287904Y-17176342D02*
X80240285Y-17271580D01*
X80240285Y-17271580D02*
X80192666Y-17319200D01*
X80192666Y-17319200D02*
X80097428Y-17366819D01*
X80097428Y-17366819D02*
X80002190Y-17366819D01*
X80002190Y-17366819D02*
X79906952Y-17319200D01*
X79906952Y-17319200D02*
X79859333Y-17271580D01*
X79859333Y-17271580D02*
X79811714Y-17176342D01*
X79811714Y-17176342D02*
X79764095Y-16985866D01*
X79764095Y-16985866D02*
X79764095Y-16747771D01*
X79764095Y-16747771D02*
X79811714Y-16557295D01*
X79811714Y-16557295D02*
X79859333Y-16462057D01*
X79859333Y-16462057D02*
X79906952Y-16414438D01*
X79906952Y-16414438D02*
X80002190Y-16366819D01*
X80954571Y-16366819D02*
X81049809Y-16366819D01*
X81049809Y-16366819D02*
X81145047Y-16414438D01*
X81145047Y-16414438D02*
X81192666Y-16462057D01*
X81192666Y-16462057D02*
X81240285Y-16557295D01*
X81240285Y-16557295D02*
X81287904Y-16747771D01*
X81287904Y-16747771D02*
X81287904Y-16985866D01*
X81287904Y-16985866D02*
X81240285Y-17176342D01*
X81240285Y-17176342D02*
X81192666Y-17271580D01*
X81192666Y-17271580D02*
X81145047Y-17319200D01*
X81145047Y-17319200D02*
X81049809Y-17366819D01*
X81049809Y-17366819D02*
X80954571Y-17366819D01*
X80954571Y-17366819D02*
X80859333Y-17319200D01*
X80859333Y-17319200D02*
X80811714Y-17271580D01*
X80811714Y-17271580D02*
X80764095Y-17176342D01*
X80764095Y-17176342D02*
X80716476Y-16985866D01*
X80716476Y-16985866D02*
X80716476Y-16747771D01*
X80716476Y-16747771D02*
X80764095Y-16557295D01*
X80764095Y-16557295D02*
X80811714Y-16462057D01*
X80811714Y-16462057D02*
X80859333Y-16414438D01*
X80859333Y-16414438D02*
X80954571Y-16366819D01*
X82145047Y-16700152D02*
X82145047Y-17366819D01*
X81716476Y-16700152D02*
X81716476Y-17223961D01*
X81716476Y-17223961D02*
X81764095Y-17319200D01*
X81764095Y-17319200D02*
X81859333Y-17366819D01*
X81859333Y-17366819D02*
X82002190Y-17366819D01*
X82002190Y-17366819D02*
X82097428Y-17319200D01*
X82097428Y-17319200D02*
X82145047Y-17271580D01*
X82621238Y-17366819D02*
X82621238Y-16366819D01*
X82621238Y-16843009D02*
X83192666Y-16843009D01*
X83192666Y-17366819D02*
X83192666Y-16366819D01*
X46702761Y-17264819D02*
X46131333Y-17264819D01*
X46417047Y-17264819D02*
X46417047Y-16264819D01*
X46417047Y-16264819D02*
X46321809Y-16407676D01*
X46321809Y-16407676D02*
X46226571Y-16502914D01*
X46226571Y-16502914D02*
X46131333Y-16550533D01*
X47131333Y-16598152D02*
X47131333Y-17264819D01*
X47131333Y-16693390D02*
X47178952Y-16645771D01*
X47178952Y-16645771D02*
X47274190Y-16598152D01*
X47274190Y-16598152D02*
X47417047Y-16598152D01*
X47417047Y-16598152D02*
X47512285Y-16645771D01*
X47512285Y-16645771D02*
X47559904Y-16741009D01*
X47559904Y-16741009D02*
X47559904Y-17264819D01*
X48369428Y-16741009D02*
X48036095Y-16741009D01*
X48036095Y-17264819D02*
X48036095Y-16264819D01*
X48036095Y-16264819D02*
X48512285Y-16264819D01*
X30250380Y-17264819D02*
X29678952Y-17264819D01*
X29964666Y-17264819D02*
X29964666Y-16264819D01*
X29964666Y-16264819D02*
X29869428Y-16407676D01*
X29869428Y-16407676D02*
X29774190Y-16502914D01*
X29774190Y-16502914D02*
X29678952Y-16550533D01*
X30869428Y-16264819D02*
X30964666Y-16264819D01*
X30964666Y-16264819D02*
X31059904Y-16312438D01*
X31059904Y-16312438D02*
X31107523Y-16360057D01*
X31107523Y-16360057D02*
X31155142Y-16455295D01*
X31155142Y-16455295D02*
X31202761Y-16645771D01*
X31202761Y-16645771D02*
X31202761Y-16883866D01*
X31202761Y-16883866D02*
X31155142Y-17074342D01*
X31155142Y-17074342D02*
X31107523Y-17169580D01*
X31107523Y-17169580D02*
X31059904Y-17217200D01*
X31059904Y-17217200D02*
X30964666Y-17264819D01*
X30964666Y-17264819D02*
X30869428Y-17264819D01*
X30869428Y-17264819D02*
X30774190Y-17217200D01*
X30774190Y-17217200D02*
X30726571Y-17169580D01*
X30726571Y-17169580D02*
X30678952Y-17074342D01*
X30678952Y-17074342D02*
X30631333Y-16883866D01*
X30631333Y-16883866D02*
X30631333Y-16645771D01*
X30631333Y-16645771D02*
X30678952Y-16455295D01*
X30678952Y-16455295D02*
X30726571Y-16360057D01*
X30726571Y-16360057D02*
X30774190Y-16312438D01*
X30774190Y-16312438D02*
X30869428Y-16264819D01*
X31821809Y-16264819D02*
X31917047Y-16264819D01*
X31917047Y-16264819D02*
X32012285Y-16312438D01*
X32012285Y-16312438D02*
X32059904Y-16360057D01*
X32059904Y-16360057D02*
X32107523Y-16455295D01*
X32107523Y-16455295D02*
X32155142Y-16645771D01*
X32155142Y-16645771D02*
X32155142Y-16883866D01*
X32155142Y-16883866D02*
X32107523Y-17074342D01*
X32107523Y-17074342D02*
X32059904Y-17169580D01*
X32059904Y-17169580D02*
X32012285Y-17217200D01*
X32012285Y-17217200D02*
X31917047Y-17264819D01*
X31917047Y-17264819D02*
X31821809Y-17264819D01*
X31821809Y-17264819D02*
X31726571Y-17217200D01*
X31726571Y-17217200D02*
X31678952Y-17169580D01*
X31678952Y-17169580D02*
X31631333Y-17074342D01*
X31631333Y-17074342D02*
X31583714Y-16883866D01*
X31583714Y-16883866D02*
X31583714Y-16645771D01*
X31583714Y-16645771D02*
X31631333Y-16455295D01*
X31631333Y-16455295D02*
X31678952Y-16360057D01*
X31678952Y-16360057D02*
X31726571Y-16312438D01*
X31726571Y-16312438D02*
X31821809Y-16264819D01*
X32583714Y-16598152D02*
X32583714Y-17264819D01*
X32583714Y-16693390D02*
X32631333Y-16645771D01*
X32631333Y-16645771D02*
X32726571Y-16598152D01*
X32726571Y-16598152D02*
X32869428Y-16598152D01*
X32869428Y-16598152D02*
X32964666Y-16645771D01*
X32964666Y-16645771D02*
X33012285Y-16741009D01*
X33012285Y-16741009D02*
X33012285Y-17264819D01*
X33821809Y-16741009D02*
X33488476Y-16741009D01*
X33488476Y-17264819D02*
X33488476Y-16264819D01*
X33488476Y-16264819D02*
X33964666Y-16264819D01*
X98672819Y-38307619D02*
X98672819Y-38879047D01*
X98672819Y-38593333D02*
X97672819Y-38593333D01*
X97672819Y-38593333D02*
X97815676Y-38688571D01*
X97815676Y-38688571D02*
X97910914Y-38783809D01*
X97910914Y-38783809D02*
X97958533Y-38879047D01*
X97672819Y-37688571D02*
X97672819Y-37593333D01*
X97672819Y-37593333D02*
X97720438Y-37498095D01*
X97720438Y-37498095D02*
X97768057Y-37450476D01*
X97768057Y-37450476D02*
X97863295Y-37402857D01*
X97863295Y-37402857D02*
X98053771Y-37355238D01*
X98053771Y-37355238D02*
X98291866Y-37355238D01*
X98291866Y-37355238D02*
X98482342Y-37402857D01*
X98482342Y-37402857D02*
X98577580Y-37450476D01*
X98577580Y-37450476D02*
X98625200Y-37498095D01*
X98625200Y-37498095D02*
X98672819Y-37593333D01*
X98672819Y-37593333D02*
X98672819Y-37688571D01*
X98672819Y-37688571D02*
X98625200Y-37783809D01*
X98625200Y-37783809D02*
X98577580Y-37831428D01*
X98577580Y-37831428D02*
X98482342Y-37879047D01*
X98482342Y-37879047D02*
X98291866Y-37926666D01*
X98291866Y-37926666D02*
X98053771Y-37926666D01*
X98053771Y-37926666D02*
X97863295Y-37879047D01*
X97863295Y-37879047D02*
X97768057Y-37831428D01*
X97768057Y-37831428D02*
X97720438Y-37783809D01*
X97720438Y-37783809D02*
X97672819Y-37688571D01*
X97672819Y-36736190D02*
X97672819Y-36640952D01*
X97672819Y-36640952D02*
X97720438Y-36545714D01*
X97720438Y-36545714D02*
X97768057Y-36498095D01*
X97768057Y-36498095D02*
X97863295Y-36450476D01*
X97863295Y-36450476D02*
X98053771Y-36402857D01*
X98053771Y-36402857D02*
X98291866Y-36402857D01*
X98291866Y-36402857D02*
X98482342Y-36450476D01*
X98482342Y-36450476D02*
X98577580Y-36498095D01*
X98577580Y-36498095D02*
X98625200Y-36545714D01*
X98625200Y-36545714D02*
X98672819Y-36640952D01*
X98672819Y-36640952D02*
X98672819Y-36736190D01*
X98672819Y-36736190D02*
X98625200Y-36831428D01*
X98625200Y-36831428D02*
X98577580Y-36879047D01*
X98577580Y-36879047D02*
X98482342Y-36926666D01*
X98482342Y-36926666D02*
X98291866Y-36974285D01*
X98291866Y-36974285D02*
X98053771Y-36974285D01*
X98053771Y-36974285D02*
X97863295Y-36926666D01*
X97863295Y-36926666D02*
X97768057Y-36879047D01*
X97768057Y-36879047D02*
X97720438Y-36831428D01*
X97720438Y-36831428D02*
X97672819Y-36736190D01*
X98006152Y-35974285D02*
X98672819Y-35974285D01*
X98101390Y-35974285D02*
X98053771Y-35926666D01*
X98053771Y-35926666D02*
X98006152Y-35831428D01*
X98006152Y-35831428D02*
X98006152Y-35688571D01*
X98006152Y-35688571D02*
X98053771Y-35593333D01*
X98053771Y-35593333D02*
X98149009Y-35545714D01*
X98149009Y-35545714D02*
X98672819Y-35545714D01*
X98149009Y-34736190D02*
X98149009Y-35069523D01*
X98672819Y-35069523D02*
X97672819Y-35069523D01*
X97672819Y-35069523D02*
X97672819Y-34593333D01*
X90872819Y-36855238D02*
X90872819Y-37426666D01*
X90872819Y-37140952D02*
X89872819Y-37140952D01*
X89872819Y-37140952D02*
X90015676Y-37236190D01*
X90015676Y-37236190D02*
X90110914Y-37331428D01*
X90110914Y-37331428D02*
X90158533Y-37426666D01*
X90206152Y-35998095D02*
X90872819Y-35998095D01*
X90206152Y-36426666D02*
X90729961Y-36426666D01*
X90729961Y-36426666D02*
X90825200Y-36379047D01*
X90825200Y-36379047D02*
X90872819Y-36283809D01*
X90872819Y-36283809D02*
X90872819Y-36140952D01*
X90872819Y-36140952D02*
X90825200Y-36045714D01*
X90825200Y-36045714D02*
X90777580Y-35998095D01*
X90349009Y-35188571D02*
X90349009Y-35521904D01*
X90872819Y-35521904D02*
X89872819Y-35521904D01*
X89872819Y-35521904D02*
X89872819Y-35045714D01*
X41598057Y-40902856D02*
X41550438Y-40855237D01*
X41550438Y-40855237D02*
X41502819Y-40759999D01*
X41502819Y-40759999D02*
X41502819Y-40521904D01*
X41502819Y-40521904D02*
X41550438Y-40426666D01*
X41550438Y-40426666D02*
X41598057Y-40379047D01*
X41598057Y-40379047D02*
X41693295Y-40331428D01*
X41693295Y-40331428D02*
X41788533Y-40331428D01*
X41788533Y-40331428D02*
X41931390Y-40379047D01*
X41931390Y-40379047D02*
X42502819Y-40950475D01*
X42502819Y-40950475D02*
X42502819Y-40331428D01*
X41598057Y-39950475D02*
X41550438Y-39902856D01*
X41550438Y-39902856D02*
X41502819Y-39807618D01*
X41502819Y-39807618D02*
X41502819Y-39569523D01*
X41502819Y-39569523D02*
X41550438Y-39474285D01*
X41550438Y-39474285D02*
X41598057Y-39426666D01*
X41598057Y-39426666D02*
X41693295Y-39379047D01*
X41693295Y-39379047D02*
X41788533Y-39379047D01*
X41788533Y-39379047D02*
X41931390Y-39426666D01*
X41931390Y-39426666D02*
X42502819Y-39998094D01*
X42502819Y-39998094D02*
X42502819Y-39379047D01*
X41836152Y-38521904D02*
X42502819Y-38521904D01*
X41836152Y-38950475D02*
X42359961Y-38950475D01*
X42359961Y-38950475D02*
X42455200Y-38902856D01*
X42455200Y-38902856D02*
X42502819Y-38807618D01*
X42502819Y-38807618D02*
X42502819Y-38664761D01*
X42502819Y-38664761D02*
X42455200Y-38569523D01*
X42455200Y-38569523D02*
X42407580Y-38521904D01*
X41979009Y-37712380D02*
X41979009Y-38045713D01*
X42502819Y-38045713D02*
X41502819Y-38045713D01*
X41502819Y-38045713D02*
X41502819Y-37569523D01*
X77017819Y-41256428D02*
X77017819Y-41827856D01*
X77017819Y-41542142D02*
X76017819Y-41542142D01*
X76017819Y-41542142D02*
X76160676Y-41637380D01*
X76160676Y-41637380D02*
X76255914Y-41732618D01*
X76255914Y-41732618D02*
X76303533Y-41827856D01*
X76017819Y-40637380D02*
X76017819Y-40542142D01*
X76017819Y-40542142D02*
X76065438Y-40446904D01*
X76065438Y-40446904D02*
X76113057Y-40399285D01*
X76113057Y-40399285D02*
X76208295Y-40351666D01*
X76208295Y-40351666D02*
X76398771Y-40304047D01*
X76398771Y-40304047D02*
X76636866Y-40304047D01*
X76636866Y-40304047D02*
X76827342Y-40351666D01*
X76827342Y-40351666D02*
X76922580Y-40399285D01*
X76922580Y-40399285D02*
X76970200Y-40446904D01*
X76970200Y-40446904D02*
X77017819Y-40542142D01*
X77017819Y-40542142D02*
X77017819Y-40637380D01*
X77017819Y-40637380D02*
X76970200Y-40732618D01*
X76970200Y-40732618D02*
X76922580Y-40780237D01*
X76922580Y-40780237D02*
X76827342Y-40827856D01*
X76827342Y-40827856D02*
X76636866Y-40875475D01*
X76636866Y-40875475D02*
X76398771Y-40875475D01*
X76398771Y-40875475D02*
X76208295Y-40827856D01*
X76208295Y-40827856D02*
X76113057Y-40780237D01*
X76113057Y-40780237D02*
X76065438Y-40732618D01*
X76065438Y-40732618D02*
X76017819Y-40637380D01*
X76017819Y-39684999D02*
X76017819Y-39589761D01*
X76017819Y-39589761D02*
X76065438Y-39494523D01*
X76065438Y-39494523D02*
X76113057Y-39446904D01*
X76113057Y-39446904D02*
X76208295Y-39399285D01*
X76208295Y-39399285D02*
X76398771Y-39351666D01*
X76398771Y-39351666D02*
X76636866Y-39351666D01*
X76636866Y-39351666D02*
X76827342Y-39399285D01*
X76827342Y-39399285D02*
X76922580Y-39446904D01*
X76922580Y-39446904D02*
X76970200Y-39494523D01*
X76970200Y-39494523D02*
X77017819Y-39589761D01*
X77017819Y-39589761D02*
X77017819Y-39684999D01*
X77017819Y-39684999D02*
X76970200Y-39780237D01*
X76970200Y-39780237D02*
X76922580Y-39827856D01*
X76922580Y-39827856D02*
X76827342Y-39875475D01*
X76827342Y-39875475D02*
X76636866Y-39923094D01*
X76636866Y-39923094D02*
X76398771Y-39923094D01*
X76398771Y-39923094D02*
X76208295Y-39875475D01*
X76208295Y-39875475D02*
X76113057Y-39827856D01*
X76113057Y-39827856D02*
X76065438Y-39780237D01*
X76065438Y-39780237D02*
X76017819Y-39684999D01*
X77017819Y-38923094D02*
X76017819Y-38923094D01*
X76636866Y-38827856D02*
X77017819Y-38542142D01*
X76351152Y-38542142D02*
X76732104Y-38923094D01*
X77017819Y-37542142D02*
X76541628Y-37875475D01*
X77017819Y-38113570D02*
X76017819Y-38113570D01*
X76017819Y-38113570D02*
X76017819Y-37732618D01*
X76017819Y-37732618D02*
X76065438Y-37637380D01*
X76065438Y-37637380D02*
X76113057Y-37589761D01*
X76113057Y-37589761D02*
X76208295Y-37542142D01*
X76208295Y-37542142D02*
X76351152Y-37542142D01*
X76351152Y-37542142D02*
X76446390Y-37589761D01*
X76446390Y-37589761D02*
X76494009Y-37637380D01*
X76494009Y-37637380D02*
X76541628Y-37732618D01*
X76541628Y-37732618D02*
X76541628Y-38113570D01*
D11*
X37228000Y-28260000D02*
X38248000Y-28260000D01*
X38248000Y-26790000D02*
X38248000Y-29730000D01*
X38248000Y-29730000D02*
X43688000Y-29730000D01*
X39028000Y-26790000D02*
X39028000Y-29730000D01*
X39148000Y-26790000D02*
X39148000Y-29730000D01*
X39268000Y-26790000D02*
X39268000Y-29730000D01*
X43688000Y-26790000D02*
X38248000Y-26790000D01*
X43688000Y-29730000D02*
X43688000Y-26790000D01*
X44708000Y-28260000D02*
X43688000Y-28260000D01*
X36048000Y-42920000D02*
X36048000Y-41900000D01*
X34578000Y-41900000D02*
X37518000Y-41900000D01*
X37518000Y-41900000D02*
X37518000Y-36460000D01*
X34578000Y-41120000D02*
X37518000Y-41120000D01*
X34578000Y-41000000D02*
X37518000Y-41000000D01*
X34578000Y-40880000D02*
X37518000Y-40880000D01*
X34578000Y-36460000D02*
X34578000Y-41900000D01*
X37518000Y-36460000D02*
X34578000Y-36460000D01*
X36048000Y-35440000D02*
X36048000Y-36460000D01*
X101848000Y-46060000D02*
X106248000Y-46060000D01*
X101848000Y-50460000D02*
X101848000Y-46060000D01*
X106248000Y-46060000D02*
X106248000Y-50460000D01*
X106248000Y-50460000D02*
X101848000Y-50460000D01*
X101848000Y-18060000D02*
X106248000Y-18060000D01*
X101848000Y-22460000D02*
X101848000Y-18060000D01*
X106248000Y-18060000D02*
X106248000Y-22460000D01*
X106248000Y-22460000D02*
X101848000Y-22460000D01*
X17848000Y-46060000D02*
X22248000Y-46060000D01*
X17848000Y-50460000D02*
X17848000Y-46060000D01*
X22248000Y-46060000D02*
X22248000Y-50460000D01*
X22248000Y-50460000D02*
X17848000Y-50460000D01*
X17848000Y-17560000D02*
X22248000Y-17560000D01*
X17848000Y-21960000D02*
X17848000Y-17560000D01*
X22248000Y-17560000D02*
X22248000Y-21960000D01*
X22248000Y-21960000D02*
X17848000Y-21960000D01*
X60476000Y-19760000D02*
X61246000Y-19760000D01*
X61246000Y-18390000D02*
X61246000Y-21130000D01*
X61246000Y-21130000D02*
X67786000Y-21130000D01*
X67786000Y-18390000D02*
X61246000Y-18390000D01*
X67786000Y-21130000D02*
X67786000Y-18390000D01*
X68556000Y-19760000D02*
X67786000Y-19760000D01*
X20968000Y-26390000D02*
X27508000Y-26390000D01*
X20968000Y-26720000D02*
X20968000Y-26390000D01*
X20968000Y-28800000D02*
X20968000Y-29130000D01*
X20968000Y-29130000D02*
X27508000Y-29130000D01*
X27508000Y-26390000D02*
X27508000Y-26720000D01*
X27508000Y-29130000D02*
X27508000Y-28800000D01*
X75916000Y-20032000D02*
X76156000Y-20032000D01*
X76156000Y-17912000D02*
X76156000Y-22152000D01*
X76156000Y-22152000D02*
X85896000Y-22152000D01*
X85896000Y-17912000D02*
X76156000Y-17912000D01*
X85896000Y-22152000D02*
X85896000Y-17912000D01*
X86136000Y-20032000D02*
X85896000Y-20032000D01*
X42678000Y-17940000D02*
X42678000Y-19095000D01*
X42678000Y-17940000D02*
X51918000Y-17940000D01*
X42678000Y-20425000D02*
X42678000Y-21580000D01*
X42678000Y-21580000D02*
X51918000Y-21580000D01*
X51918000Y-17940000D02*
X51918000Y-19095000D01*
X51918000Y-20425000D02*
X51918000Y-21580000D01*
X27178000Y-17940000D02*
X27178000Y-19095000D01*
X27178000Y-17940000D02*
X36418000Y-17940000D01*
X27178000Y-20425000D02*
X27178000Y-21580000D01*
X27178000Y-21580000D02*
X36418000Y-21580000D01*
X36418000Y-17940000D02*
X36418000Y-19095000D01*
X36418000Y-20425000D02*
X36418000Y-21580000D01*
X95548000Y-32800000D02*
X95548000Y-34090000D01*
X97218000Y-34090000D02*
X93878000Y-34090000D01*
X93878000Y-34090000D02*
X93878000Y-39430000D01*
X97218000Y-39430000D02*
X97218000Y-34090000D01*
X93878000Y-39430000D02*
X97218000Y-39430000D01*
X95548000Y-40720000D02*
X95548000Y-39430000D01*
X86048000Y-29800000D02*
X86048000Y-30140000D01*
X89418000Y-30140000D02*
X82678000Y-30140000D01*
X82678000Y-30140000D02*
X82678000Y-42380000D01*
X89418000Y-42380000D02*
X89418000Y-30140000D01*
X82678000Y-42380000D02*
X89418000Y-42380000D01*
X86048000Y-42720000D02*
X86048000Y-42380000D01*
X55918000Y-39260000D02*
G75*
G02*
X43178000Y-39260000I-6370000J0D01*
G01*
X43178000Y-39260000D02*
G75*
G02*
X55918000Y-39260000I6370000J0D01*
G01*
X75433000Y-35815000D02*
X62693000Y-35815000D01*
X75433000Y-35815000D02*
X75433000Y-44885000D01*
X62693000Y-35815000D02*
X62693000Y-44885000D01*
X75433000Y-44885000D02*
X62693000Y-44885000D01*
X72358000Y-44885000D02*
X65768000Y-44885000D01*
X72358000Y-44885000D02*
X72358000Y-51235000D01*
X65768000Y-44885000D02*
X65768000Y-51235000D01*
X72358000Y-51235000D02*
X65768000Y-51235000D01*
X70767000Y-51235000D02*
X67358000Y-51235000D01*
X70767000Y-51235000D02*
X70767000Y-57685000D01*
X67358000Y-51235000D02*
X67358000Y-57685000D01*
X70767000Y-57685000D02*
X67358000Y-57685000D01*
M02*
